<?xml version="1.0" standalone="no"?>
<!DOCTYPE svg PUBLIC "-//W3C//DTD SVG 1.1//EN" "http://www.w3.org/Graphics/SVG/1.1/DTD/svg11.dtd">
<svg xmlns="http://www.w3.org/2000/svg">
<defs >
<font id="Calistoga" horiz-adv-x="580" ><font-face
    font-family="Calistoga"
    units-per-em="1000"
    panose-1="0 0 5 0 0 0 0 0 0 0"
    ascent="1000"
    descent="-300"
    alphabetic="0" />
<glyph unicode=" " glyph-name="space" horiz-adv-x="190" />
<glyph unicode="!" glyph-name="exclam" horiz-adv-x="272" d="M94 308L45 699Q44 707 44 720Q44 788 114 788H157Q228 788 228 720Q228 715 226 699L176 308H94ZM237 42T209 15T135 -13Q90 -13 63 14T35 86Q35 131 62 158T135 185Q181 185 209 158T237 86Q237
42 209 15Z" />
<glyph unicode="&quot;" glyph-name="quotedbl" horiz-adv-x="555" d="M120 810T141 815T182 820Q219 820 232 808T246 767Q246 758 244 734Q238 691 202 583T149 458Q123 434 101 434Q79 434 60 450Q74 517 112 804Q120 810 141 815ZM374 810T395 815T436 820Q473
820 486 808T500 767Q500 758 498 734Q492 691 456 583T403 458Q377 434 355 434Q333 434 314 450Q328 517 366 804Q374 810 395 815Z" />
<glyph unicode="#" glyph-name="numbersign" horiz-adv-x="722" d="M519 423L497 285H631Q625 238 604 205H485L455 14Q438 7 412 3T361 -1L393 205L283 204L253 14Q236 7 209 3T158 -1L190 204H62Q68 251 89 286H203L225 423H91Q97 466 118 504H237L268 698Q284
704 311 708T362 712L329 504L440 503L471 698Q487 704 514 708T564 712L531 503H660Q654 458 633 423H519ZM428 423H317L295 286L406 285L428 423Z" />
<glyph unicode="$" glyph-name="dollar" horiz-adv-x="593" d="M413 382T451 358T517 294T544 200Q544 117 490 67T336 16H333V-112Q323 -117 304 -117Q277 -117 259 -109V23Q211 33 172 48L96 16Q77 52 63 120T49 244H153Q175 175 220 135T326 95Q411 95 411
157Q411 198 366 235T257 302Q165 346 123 390T80 505Q80 588 132 634T269 683V796Q279 801 297 801Q324 801 342 792V677Q377 671 402 659L507 683Q525 654 530 604T536 489V473H448Q428 538 392 571T310 604Q221 604 221 533Q221 493 257 465T355 409Q413 382
451 358Z" />
<glyph unicode="%" glyph-name="percent" horiz-adv-x="1078" d="M359 -105T339 -96T304 -73L701 739Q720 738 740 729T775 707L377 -106Q359 -105 339 -96ZM183 242T134 297T84 467Q84 583 134 637T273 692Q362 692 411 638T461 467Q461 351 411 297T272 242Q183
242 134 297ZM296 300T309 336T323 469Q323 565 310 599T273 633Q249 633 236 599T223 467Q223 372 236 336T272 300Q296 300 309 336ZM715 -53T666 2T617 172Q617 288 666 342T805 397Q895 397 944 342T994 172Q994 57 944 2T805 -53Q715 -53 666 2ZM828 6T841
42T855 174Q855 270 842 304T805 339Q781 339 768 305T755 173Q755 77 768 42T805 6Q828 6 841 42Z" />
<glyph unicode="&amp;" glyph-name="ampersand" horiz-adv-x="806" d="M134 591T166 627T258 685T398 707Q474 707 527 688T608 638T635 571Q635 536 611 516T550 496Q516 496 495 514T473 558Q473 577 484 591T518 612Q478 646 418 646Q367 646 335 622T303 559Q303
519 327 484T397 427V381Q317 381 287 331T257 206Q257 145 294 105T398 65Q455 65 493 92T531 171Q531 221 494 249T398 278V286Q398 303 404 321T420 350Q483 350 523 365T606 410Q641 434 667 445T731 456Q767 456 776 439T786 398Q786 377 781 367Q729 371
683 371Q655 371 634 364T591 335Q625 327 651 302T691 242T705 175Q705 125 672 84T573 17T410 -8Q309 -8 232 20T113 95T71 198Q71 266 110 318T258 390Q188 416 161 456T134 548Q134 591 166 627Z" />
<glyph unicode="&apos;" glyph-name="quotesingle" horiz-adv-x="301" d="M120 810T141 815T182 820Q219 820 232 808T246 767Q246 758 244 734Q238 691 202 583T149 458Q123 434 101 434Q79 434 60 450Q74 517 112 804Q120 810 141 815Z" />
<glyph unicode="(" glyph-name="parenleft" horiz-adv-x="442" d="M208 237T232 143T302 -19T405 -104V-146Q297 -142 215 -74T87 102T42 332Q42 453 87 561T214 738T405 810V767Q347 750 302 683T233 522T208 332Q208 237 232 143Z" />
<glyph unicode=")" glyph-name="parenright" horiz-adv-x="442" d="M234 427T210 521T140 683T37 767V810Q145 806 227 738T355 562T400 332Q400 211 355 103T228 -74T37 -146V-104Q95 -87 140 -20T209 142T234 332Q234 427 210 521Z" />
<glyph unicode="*" glyph-name="asterisk" horiz-adv-x="490" d="M408 677T418 661T429 626Q429 594 398 573L369 553L256 712L228 598Q222 572 205 555T165 538Q147 538 122 555L93 576L211 732L99 722Q65 719 43 736T20 784Q20 798 24 810L36 845L218 782L177
880Q169 899 169 916Q169 943 186 960T237 978H271V796L347 864Q372 886 401 886Q421 886 436 874T459 837L470 803L291 747L390 688Q408 677 418 661Z" />
<glyph unicode="+" glyph-name="plus" horiz-adv-x="629" d="M579 283T571 267H371V68Q354 60 316 60Q274 60 257 69V267H58Q50 286 50 322Q50 364 60 381H257V580Q278 589 315 589Q353 589 371 580V381H571Q579 362 579 322Q579 283 571 267Z" />
<glyph unicode="," glyph-name="comma" horiz-adv-x="259" d="M56 -214T46 -200T36 -171Q82 -145 110 -105T138 -24Q138 -21 136 -11Q126 -13 121 -13Q77 -13 53 14T28 80Q28 125 55 152T127 179Q179 179 211 141T244 32Q244 -30 219 -83T154 -171T68 -218Q56
-214 46 -200Z" />
<glyph unicode="-" glyph-name="hyphen" horiz-adv-x="487" d="M420 314Q427 299 427 258Q427 228 421 214H67Q60 229 60 258Q60 301 67 314H420Z" />
<glyph unicode="." glyph-name="period" horiz-adv-x="259" d="M231 42T203 15T130 -13Q84 -13 56 14T28 86Q28 131 56 158T130 185Q175 185 203 158T231 86Q231 42 203 15Z" />
<glyph unicode="/" glyph-name="slash" horiz-adv-x="480" d="M346 750Q366 749 393 740T434 716L135 -208Q115 -207 88 -198T46 -175L346 750Z" />
<glyph unicode="0" glyph-name="zero" horiz-adv-x="663" d="M45 -10T45 342Q45 535 120 621T332 708Q470 708 544 622T618 341Q618 -10 330 -10Q45 -10 45 342ZM363 60T387 82T425 167T439 343Q439 465 425 529T388 616T332 638Q299 638 276 616T238 529T223
340Q223 228 237 166T274 82T330 60Q363 60 387 82Z" />
<glyph unicode="1" glyph-name="one" horiz-adv-x="480" d="M331 157Q331 107 358 88T442 68Q442 51 436 31T419 0H92Q81 10 75 30T68 68Q121 68 149 88T178 157V519Q178 551 133 551Q118 551 101 548T70 538L43 588L199 679Q230 697 249 703T284 710Q309 710
320 694T331 656V157Z" />
<glyph unicode="2" glyph-name="two" horiz-adv-x="585" d="M535 210T545 184T555 129Q555 73 515 34T383 -6Q349 -6 293 2Q231 10 190 10Q117 10 67 -11L68 -10L66 -11L34 14Q44 68 70 114T126 195T206 281Q255 330 283 363T331 437T350 525Q350 582 323 610T251
639Q193 639 161 595Q187 588 203 566T219 518Q219 482 191 459T125 436Q86 436 58 463T30 538Q30 584 61 623T150 685T282 709Q391 709 460 658T530 508Q530 445 501 397T428 316T314 238Q251 198 214 170T153 107Q184 120 226 129T303 139H356Q405 139 442 161T491
224H519Q535 210 545 184Z" />
<glyph unicode="3" glyph-name="three" horiz-adv-x="624" d="M395 370Q478 370 528 326T579 196Q579 135 541 89T436 18T283 -8Q213 -8 158 10T72 62T40 142Q40 184 63 207T123 230Q157 230 178 210T200 161Q200 145 193 127T172 97Q183 88 205 86T267 83Q328
83 361 113T394 197Q394 255 365 295T275 336Q237 326 216 322L196 382Q285 405 318 439T351 523Q351 571 324 601T251 631Q226 631 209 624T177 599Q191 593 201 579T212 545Q212 520 191 499T134 478Q96 478 75 502T54 564Q54 608 86 640T172 690T291 707Q397
707 463 664T529 547Q529 493 494 449T373 369L395 370Z" />
<glyph unicode="4" glyph-name="four" horiz-adv-x="663" d="M653 249T640 231T590 202T479 192V121Q479 91 504 79T583 67Q583 51 577 31T559 0H238Q228 10 222 30T216 67Q325 67 325 122V192H28L10 254L276 698H479V274H495Q534 274 555 289T590 341H613Q630
336 641 319T653 280Q653 249 640 231ZM325 274V608L150 274H325Z" />
<glyph unicode="5" glyph-name="five" horiz-adv-x="603" d="M401 440T453 413T534 337T563 227Q563 164 529 111T430 25T274 -8Q205 -8 152 10T69 61T40 136Q40 177 64 201T126 225Q161 225 183 204T206 151Q206 132 196 118T164 90Q196 76 238 76Q304 76 342
115T380 214Q380 282 342 316T234 351Q205 351 174 345T121 329L82 374L116 698H336Q392 698 429 705T490 728H513Q526 718 534 697T542 652Q542 608 511 584T431 560Q398 560 370 568T304 592Q250 615 215 619L191 407Q265 440 329 440Q401 440 453 413Z" />
<glyph unicode="6" glyph-name="six" horiz-adv-x="635" d="M439 434T488 409T566 338T595 229Q595 163 561 109T464 24T322 -8Q238 -8 176 30T80 146T45 335Q45 458 86 542T196 666T353 707Q445 707 505 671T566 566Q566 527 544 502T482 476Q446 476 422 497T398
550Q398 566 408 582T436 607Q424 622 402 629T353 637Q293 637 256 580T219 393Q219 385 220 382Q246 406 288 420T377 434Q439 434 488 409ZM369 67T398 99T428 205Q428 280 398 316T319 352Q284 352 258 339T219 300Q218 286 218 259Q218 157 248 112T325 67Q369
67 398 99Z" />
<glyph unicode="7" glyph-name="seven" horiz-adv-x="542" d="M542 662Q426 515 387 383T347 119V63Q347 31 323 11T230 -10Q180 -10 147 5Q157 156 218 294T411 592Q327 567 238 567Q180 567 155 550T118 488H62Q44 505 32 531T20 594Q20 647 51 677T147 708Q166
708 202 703T249 696Q364 679 414 679Q447 679 462 684T506 711L542 662Z" />
<glyph unicode="8" glyph-name="eight" horiz-adv-x="636" d="M600 322T600 197Q600 138 565 92T462 19T304 -8Q214 -8 154 17T65 83T36 174Q36 232 74 280T177 354Q125 391 96 432T67 525Q67 578 97 619T186 685T329 709Q410 709 462 687T537 629T561 555Q561
509 529 471T441 404Q600 322 600 197ZM290 642T259 621T227 564Q227 497 364 437Q400 460 419 490T439 553Q439 592 413 617T338 642Q290 642 259 621ZM358 66T393 92T428 162Q428 205 389 240T249 311Q211 292 190 260T169 189Q169 135 205 101T303 66Q358 66
393 92Z" />
<glyph unicode="9" glyph-name="nine" horiz-adv-x="632" d="M452 709T519 614T587 350Q587 240 551 158T448 33T295 -11Q194 -11 134 28T74 137Q74 178 96 202T159 227Q192 227 215 209T239 157Q239 110 194 94Q209 76 231 70T284 63Q352 63 381 118T410 287V302V310Q383
289 346 278T265 266Q201 266 150 292T70 367T40 480Q40 541 73 593T167 677T307 709Q452 709 519 614ZM353 348T376 358T412 386Q413 399 413 423Q413 543 382 591T306 639Q263 639 233 607T202 499Q202 426 237 387T324 348Q353 348 376 358Z" />
<glyph unicode=":" glyph-name="colon" horiz-adv-x="295" d="M249 397T221 370T148 342Q102 342 74 369T46 441Q46 486 74 513T148 540Q193 540 221 513T249 441Q249 397 221 370ZM249 48T221 21T148 -7Q102 -7 74 20T46 92Q46 137 74 164T148 191Q193 191 221
164T249 92Q249 48 221 21Z" />
<glyph unicode=";" glyph-name="semicolon" horiz-adv-x="295" d="M74 -214T64 -200T54 -171Q100 -145 128 -105T156 -24Q156 -21 154 -11Q144 -13 139 -13Q95 -13 71 14T46 80Q46 125 73 152T145 179Q197 179 229 141T262 32Q262 -30 237 -83T172 -171T86 -218Q74
-214 64 -200ZM249 397T221 370T148 342Q102 342 74 369T46 441Q46 486 74 513T148 540Q193 540 221 513T249 441Q249 397 221 370Z" />
<glyph unicode="&lt;" glyph-name="less" horiz-adv-x="629" d="M473 608Q493 600 512 572T541 518L252 308L541 89Q532 64 513 36T473 -1L100 281V334L473 608Z" />
<glyph unicode="=" glyph-name="equal" horiz-adv-x="629" d="M571 527Q579 507 579 468Q579 428 571 413H58Q50 432 50 468Q50 508 60 527H571ZM571 298Q579 278 579 239Q579 200 571 184H58Q50 203 50 239Q50 279 60 298H571Z" />
<glyph unicode="&gt;" glyph-name="greater" horiz-adv-x="629" d="M541 281L168 -1Q148 7 129 35T100 89L389 308L100 518Q109 544 128 572T168 608L541 334V281Z" />
<glyph unicode="?" glyph-name="question" horiz-adv-x="532" d="M345 784T399 761T482 697T512 603Q512 525 452 466T291 371L310 267H214L187 394Q334 484 334 604Q334 656 309 681T243 707Q212 707 186 694T145 655Q173 646 192 625T212 573Q212 537 186 513T123
489Q98 489 74 502T35 540T20 599Q20 648 51 690T140 758T274 784Q345 784 399 761ZM368 41T341 14T267 -13Q222 -13 195 14T167 86Q167 131 194 158T267 185Q313 185 340 158T368 86Q368 41 341 14Z" />
<glyph unicode="@" glyph-name="at" horiz-adv-x="1019" d="M696 69Q693 57 693 35Q693 9 702 -3T732 -15Q763 -15 789 13T830 91T845 197Q845 291 807 354T705 447T563 478Q458 478 370 427T229 283T177 73Q177 -74 262 -152T502 -230Q566 -230 619 -218T709
-186L719 -202Q726 -213 726 -227Q726 -241 719 -246Q676 -274 611 -293T470 -313Q358 -313 270 -269T131 -138T80 69Q80 206 145 319T323 497T570 562Q678 562 761 518T891 392T938 197Q938 113 911 47T829 -59T691 -98Q648 -98 616 -87T554 -50Q529 -69 495 -81T422
-93Q350 -93 314 -47T278 78Q278 147 304 203T379 291T490 324Q520 324 548 317T600 295Q615 303 634 307T668 312H735L696 69ZM442 33T456 11T498 -12Q523 -12 539 2L572 231Q552 241 533 241Q509 241 488 222T455 167T442 82Q442 33 456 11Z" />
<glyph unicode="A" glyph-name="A" horiz-adv-x="657" d="M612 100T636 82T687 64Q687 46 681 29T664 0H393Q382 12 376 29T370 64Q427 64 427 112Q427 132 420 159L414 180H190L184 159Q175 128 175 115Q175 64 239 64Q239 46 233 29T216 0H-7Q-18 12 -24 29T-30
64Q-2 64 21 80T55 129L219 613Q179 626 118 626Q118 669 142 698H416L602 132Q612 100 636 82ZM392 258L321 506Q312 536 298 557L212 258H392Z" />
<glyph unicode="B" glyph-name="B" horiz-adv-x="633" d="M273 -8T222 -5Q105 0 48 0Q26 27 26 63Q60 63 74 74T88 114V584Q88 612 74 623T26 635Q26 671 48 698Q104 698 221 701Q273 703 292 703Q449 703 514 654T579 535Q579 477 550 438T452 370Q541 352 579
313T617 196Q617 -8 311 -8Q273 -8 222 -5ZM417 394T417 512Q417 568 387 599T294 630Q266 630 253 626V396Q271 394 283 394Q417 394 417 512ZM435 65T435 186Q435 255 400 288T286 322L253 321V68Q280 65 295 65Q435 65 435 186Z" />
<glyph unicode="C" glyph-name="C" horiz-adv-x="570" d="M442 475Q433 542 406 582T335 622Q274 622 238 565T202 387Q202 242 258 175T403 108Q446 108 479 124T526 162Q538 153 546 135T554 102Q554 77 529 50T455 5T344 -14Q256 -14 184 27T68 151T25 352Q25
467 64 547T173 668T338 709Q360 709 388 703T437 687Q452 694 481 701T526 709Q555 638 555 475H442Z" />
<glyph unicode="D" glyph-name="D" horiz-adv-x="668" d="M269 -11T236 -8Q129 0 48 0Q26 28 26 64Q59 64 73 75T88 115V585Q88 612 74 623T26 635Q26 673 48 698Q124 698 185 702T257 707Q291 710 306 710Q417 710 492 664T604 540T641 364Q641 257 604 173T488
39T292 -11Q269 -11 236 -8ZM370 72T416 137T463 349Q463 490 414 560T276 630Q259 630 252 628V74Q262 72 284 72Q370 72 416 137Z" />
<glyph unicode="E" glyph-name="E" horiz-adv-x="615" d="M599 211Q599 178 583 94T554 -16Q538 -12 512 0H49Q26 30 26 63Q60 63 76 75T92 115V584Q92 611 77 623T27 635Q27 668 50 698H438Q455 706 477 710T519 715Q534 686 551 635T569 561Q557 550 528 538T478
522Q465 559 437 586T372 613H259V402H331Q396 402 396 475Q441 475 477 454V268Q461 258 440 253T397 247Q397 285 379 304T332 323H259V88H380Q422 88 453 123T492 211H599Z" />
<glyph unicode="F" glyph-name="F" horiz-adv-x="564" d="M368 380T380 398T392 458Q415 458 439 452T478 436V251Q463 241 439 235T392 229Q392 270 381 287T341 305H258V127Q258 96 271 82T324 68H404Q404 21 386 0H49Q38 12 32 29T26 64Q66 64 80 75T94 114V584Q94
611 79 622T30 634Q30 671 53 697H435Q474 714 511 714Q523 691 533 641T544 563Q532 552 506 541T459 525Q447 563 420 587T346 612H258V380H340Q368 380 380 398Z" />
<glyph unicode="G" glyph-name="G" horiz-adv-x="664" d="M265 -14T187 31T67 156T25 339Q25 459 66 542T182 667T353 709Q416 709 474 687Q489 694 517 701T562 709Q591 635 591 483H494Q484 547 445 582T350 617Q284 617 247 561T209 365Q209 211 246 147T359
83Q387 83 406 89T438 109V223Q438 249 416 260T345 272Q345 290 352 314T369 349H585Q624 349 639 326T654 282Q654 272 649 264Q613 264 593 256V141Q593 109 604 96Q611 89 611 78Q611 60 578 38T490 1T370 -14Q265 -14 187 31Z" />
<glyph unicode="H" glyph-name="H" horiz-adv-x="727" d="M642 86T655 75T701 64Q701 46 695 29T679 0H436Q426 12 420 29T414 64Q447 64 460 75T474 114V313H254V114Q254 86 267 75T314 64Q314 46 308 29T292 0H48Q38 12 32 29T26 64Q59 64 72 75T86 114V584Q86
612 73 623T26 635Q26 652 32 669T48 698H292Q302 686 308 669T314 635Q281 635 268 624T254 584V397H474V584Q474 612 460 623T414 635Q414 652 420 669T436 698H679Q689 686 695 669T701 635Q669 635 656 624T642 584V114Q642 86 655 75Z" />
<glyph unicode="I" glyph-name="I" horiz-adv-x="345" d="M51 0Q41 12 35 29T29 64Q62 64 75 75T89 114V584Q89 612 76 623T29 635Q29 652 35 669T51 698H294Q304 686 310 669T316 635Q283 635 270 624T256 584V114Q256 86 269 75T316 64Q316 46 310 29T294 0H51Z" />
<glyph unicode="J" glyph-name="J" horiz-adv-x="563" d="M489 228Q489 99 423 43T250 -13Q223 -13 187 -7T133 10L90 -13Q56 24 33 76T10 210Q10 243 15 268H167Q159 233 159 204Q159 145 181 110T250 75Q282 75 304 97T327 170V564Q327 601 307 617T235 634Q235
651 241 668T258 697H532Q543 685 549 669T555 634Q521 634 505 622T489 583V228Z" />
<glyph unicode="K" glyph-name="K" horiz-adv-x="665" d="M520 230T550 182Q586 124 608 100T664 71V31Q647 8 624 -3T563 -14Q511 -14 478 8T429 55T387 132Q351 204 320 254T255 318V114Q255 86 268 75T315 64Q315 46 309 29T293 0H48Q38 12 32 29T26 64Q59
64 72 75T86 114V584Q86 612 73 623T26 635Q26 652 32 669T48 698H293Q303 686 309 669T315 635Q282 635 269 624T255 584V386Q278 386 292 384L433 571Q446 587 446 607Q446 619 428 627T388 635Q388 651 394 668T411 698H644Q654 685 660 668T666 635Q603 635
566 587L377 363Q423 342 454 312T518 233Q520 230 550 182Z" />
<glyph unicode="L" glyph-name="L" horiz-adv-x="537" d="M49 0Q38 12 32 29T26 64Q60 64 74 75T88 114V584Q88 612 74 623T26 635Q26 653 32 669T49 698H296Q318 675 318 635Q284 635 268 623T252 584V85H289Q362 85 397 133T433 268H503Q520 255 530 212T540
128Q540 65 518 33T446 0H49Z" />
<glyph unicode="M" glyph-name="M" horiz-adv-x="913" d="M864 698Q875 686 881 669T887 635Q853 635 837 623T820 584V114Q820 86 835 75T887 64Q887 46 881 29T864 0H616Q606 12 600 29T594 64Q629 64 646 75T663 114V528L493 99Q480 68 457 57T397 45L199 528V114Q199
87 218 76T278 64Q278 46 272 29T256 0H48Q38 12 32 29T26 64Q63 64 80 75T97 114V584Q97 611 79 623T26 635Q26 652 32 669T49 698H206Q253 698 281 685T326 631L432 370L472 246L510 370L636 698H864Z" />
<glyph unicode="N" glyph-name="N" horiz-adv-x="724" d="M210 114Q210 63 283 63Q283 28 260 0H52Q30 27 30 63Q65 63 82 75T99 114V584Q99 635 26 635Q26 652 32 669T48 698H187Q216 698 245 676T300 613L527 254V584Q527 611 509 623T456 635Q456 653 462 669T479
698H692Q703 686 709 669T715 635Q681 635 664 623T646 584V-6H606Q557 -6 534 6T490 50L210 475V114Z" />
<glyph unicode="O" glyph-name="O" horiz-adv-x="669" d="M238 -13T169 31T62 158T25 348Q25 461 63 542T170 667T333 710Q429 710 499 665T606 539T644 348Q644 236 606 155T497 30T334 -13Q238 -13 169 31ZM389 60T423 123T458 352Q458 510 426 573T336 636Q281
636 247 573T212 345Q212 187 244 124T334 60Q389 60 423 123Z" />
<glyph unicode="P" glyph-name="P" horiz-adv-x="602" d="M460 705T526 649T592 479Q592 412 559 360T459 277T295 247H253V159Q253 119 262 99T293 72T362 64Q362 46 356 29T340 0H49Q38 12 32 29T26 64Q60 64 74 75T89 114V584Q89 612 75 623T26 635Q26 669
48 698Q115 698 230 703Q288 705 306 705Q460 705 526 649ZM418 546T389 586T290 626Q268 626 253 622V329Q262 327 279 327Q362 327 390 371T418 482Q418 546 389 586Z" />
<glyph unicode="Q" glyph-name="Q" horiz-adv-x="669" d="M723 -68T727 -80T732 -100Q732 -118 718 -137T676 -169T605 -182Q563 -182 534 -168T469 -128Q438 -105 415 -94T361 -82Q324 -82 304 -87T255 -110L226 -76Q250 -33 299 -11Q214 -3 152 43T58 168T25
348Q25 461 63 542T170 667T333 710Q429 710 499 665T606 539T644 348Q644 214 591 125T441 4Q478 -4 513 -20T589 -59Q614 -73 653 -73Q689 -73 718 -62Q723 -68 727 -80ZM212 187T244 124T334 60Q389 60 423 123T458 352Q458 510 426 573T336 636Q281 636 247
573T212 345Q212 187 244 124Z" />
<glyph unicode="R" glyph-name="R" horiz-adv-x="653" d="M596 116T613 98T659 75V25Q636 -7 572 -7Q512 -7 478 13T427 65T396 151Q381 210 364 249T320 297H254V114Q254 88 273 76T323 63Q323 27 301 0H50Q27 28 27 63Q61 63 76 75T92 114V584Q92 611 76 623T26
635Q26 675 46 698Q112 698 194 702Q266 706 307 706Q593 706 593 513Q593 366 437 334Q482 321 523 272T585 154Q596 116 613 98ZM358 366T392 403T426 503Q426 567 397 598T303 630Q269 630 254 626V368Q272 366 298 366Q358 366 392 403Z" />
<glyph unicode="S" glyph-name="S" horiz-adv-x="593" d="M138 246Q154 162 201 114T312 65Q354 65 374 89T394 142Q394 185 357 214T249 278Q155 324 107 380T59 516Q59 575 88 618T169 685T283 708Q316 708 354 702T416 682L501 708Q519 677 524 623T529 497V482H446Q410
628 305 628Q265 628 245 606T225 546Q225 516 241 494T281 457T347 421Q410 390 452 363T526 292T557 186Q557 130 529 85T448 12T323 -15Q242 -15 162 19L85 -15Q66 23 52 103T38 246H138Z" />
<glyph unicode="T" glyph-name="T" horiz-adv-x="638" d="M612 675T621 583T630 432Q617 427 590 424T540 421Q534 501 521 544T484 603T424 619H407V118Q407 90 433 77T513 64Q513 46 507 29T490 0H150Q140 12 134 29T128 64Q241 64 241 118V619H219Q114 619
98 421Q28 424 8 432Q8 491 17 583T42 710Q88 710 124 698H514Q552 710 596 710Q612 675 621 583Z" />
<glyph unicode="U" glyph-name="U" horiz-adv-x="671" d="M600 273Q600 134 535 61T340 -13Q210 -13 136 58T62 263V585Q62 612 48 623T0 635Q0 673 23 698H273Q296 673 296 635Q262 635 248 624T234 585V242Q234 170 264 127T358 83Q421 83 449 122T478 226V585Q478
612 462 623T407 635Q407 675 429 698H649Q671 673 671 635Q633 635 617 624T600 585V273Z" />
<glyph unicode="V" glyph-name="V" horiz-adv-x="630" d="M654 698Q670 673 670 635Q635 635 615 625T586 588L416 89Q398 37 375 15T307 -7H276L43 588Q33 614 14 624T-40 635Q-40 671 -24 698H272Q290 666 290 635Q262 635 247 623T231 590Q231 584 237 566L321
295L351 185L381 293L461 569Q465 585 465 590Q465 611 450 623T406 635Q406 655 409 669T422 698H654Z" />
<glyph unicode="W" glyph-name="W" horiz-adv-x="992" d="M1012 672T1012 635Q977 635 958 625T931 588L805 130Q785 59 755 26T675 -7H619L527 315L488 462L456 314L405 130Q385 57 357 25T280 -7H226L49 588Q41 615 27 625T-20 635Q-20 673 -5 698H265Q282 664
282 635Q247 635 234 623T221 591L307 268L323 186L418 551Q426 593 444 621T492 649H597L696 268L718 182L741 270L815 558Q818 569 818 578Q818 604 799 619T748 635Q748 673 762 698H997Q1012 672 1012 635Z" />
<glyph unicode="X" glyph-name="X" horiz-adv-x="685" d="M638 64T697 64Q697 46 691 29T675 0H387Q376 12 370 29T363 64Q417 64 417 91Q417 104 403 127L324 255L235 127Q226 114 226 101Q226 85 239 75T275 64Q275 46 269 29T252 0H25Q14 12 8 29T1 64Q40 64
59 74T99 113L267 343L107 574Q64 635 5 635Q5 673 27 698H322Q346 672 346 635Q290 635 290 609Q290 598 306 572L381 451L445 568Q455 586 455 598Q455 614 441 624T404 635Q404 673 427 698H655Q679 672 679 635Q640 635 620 624T581 585L434 372L597 126Q638
64 697 64Z" />
<glyph unicode="Y" glyph-name="Y" horiz-adv-x="661" d="M671 672T671 635Q646 635 634 631T614 617T594 585L420 269V114Q420 88 448 76T516 64Q516 46 510 29T494 0H193Q183 12 177 29T171 64Q209 64 236 76T263 114V246L64 591Q53 610 32 622T-10 635Q-10
672 14 698H284Q307 673 307 635Q247 635 247 596Q247 578 263 546L359 365L469 572Q474 582 474 591Q474 609 457 622T415 635Q415 673 438 698H647Q671 672 671 635Z" />
<glyph unicode="Z" glyph-name="Z" horiz-adv-x="616" d="M377 79Q423 79 455 126T505 239H601Q601 204 586 107T559 -16Q519 -16 484 0H32L7 38L382 621H274Q211 621 182 588T141 477H42Q42 546 51 606T76 698H565L590 661L227 79H377Z" />
<glyph unicode="[" glyph-name="bracketleft" horiz-adv-x="365" d="M221 -85H320Q336 -118 336 -154H70V800H336Q336 780 333 765T320 731H221V-85Z" />
<glyph unicode="\" glyph-name="backslash" horiz-adv-x="447" d="M321 -160L45 693L126 724L403 -129L321 -160Z" />
<glyph unicode="]" glyph-name="bracketright" horiz-adv-x="365" d="M45 731Q36 750 33 765T29 800H295V-154H29Q29 -118 45 -85H144V731H45Z" />
<glyph unicode="^" glyph-name="asciicircum" horiz-adv-x="890" d="M239 135T213 147T178 179L401 698H488L711 179Q702 160 676 148T619 130L445 559L270 130Q239 135 213 147Z" />
<glyph unicode="_" glyph-name="underscore" horiz-adv-x="500" d="M-7 -71H509V-182H-7V-71Z" />
<glyph unicode="`" glyph-name="grave" horiz-adv-x="339" d="M148 806T201 752T309 663Q306 640 292 629T256 617Q222 617 167 644T71 711T30 784Q30 801 41 820T72 851T117 864Q148 806 201 752Z" />
<glyph unicode="a" glyph-name="a" horiz-adv-x="537" d="M22 208T66 247T196 286Q226 286 257 280T309 264V397Q309 437 289 454T235 472Q202 472 181 456Q200 450 209 436T219 403Q219 371 196 351T138 331Q100 331 77 353T54 410Q54 445 78 476T151 526T274
545Q373 545 424 505T475 386V121Q475 73 521 63V31Q508 13 478 3T417 -7Q349 -7 321 40Q298 20 265 7T190 -7Q115 -7 69 34T22 141Q22 208 66 247ZM309 187Q298 194 283 199T253 204Q225 204 207 187T189 136Q189 109 207 92T255 74Q270 74 284 78T309 90V187Z"
/>
<glyph unicode="b" glyph-name="b" horiz-adv-x="569" d="M387 540T435 512T512 425T541 283Q541 190 505 124T406 23T268 -11Q219 -11 160 -2T67 24V646Q67 695 6 695V727Q39 750 92 767T179 784Q203 784 213 774T223 738V596L220 501Q258 540 330 540Q387 540
435 512ZM315 62T342 106T369 249Q369 353 340 404T261 455Q239 455 223 444V81Q242 62 271 62Q315 62 342 106Z" />
<glyph unicode="c" glyph-name="c" horiz-adv-x="462" d="M430 118T435 103T441 77Q441 55 418 34T357 -1T273 -15Q200 -15 144 18T57 113T26 260Q26 347 59 411T152 509T286 543Q360 543 401 508T443 417Q443 370 419 344T357 317Q326 317 305 340T284 396Q284
418 292 433T314 460Q298 469 285 469Q251 469 225 429T199 295Q199 189 230 143T321 96Q349 96 376 104T422 127Q430 118 435 103Z" />
<glyph unicode="d" glyph-name="d" horiz-adv-x="566" d="M556 25Q542 7 514 -3T454 -13Q425 -13 397 -1T358 34Q338 8 309 -2T235 -13Q179 -13 132 15T57 100T28 239Q28 336 64 404T161 506T293 540Q310 540 354 536L351 596V646Q351 671 337 683T284 695V736Q319
755 375 770T463 785Q486 785 496 775T507 739V111Q507 62 555 53L556 25ZM335 72T351 90V440Q330 469 295 469Q251 469 225 423T198 274Q198 175 227 124T304 72Q335 72 351 90Z" />
<glyph unicode="e" glyph-name="e" horiz-adv-x="502" d="M383 102T437 142Q445 134 451 118T457 90Q457 72 433 49T367 8T271 -9Q197 -9 142 23T56 116T26 260Q26 345 58 409T148 507T277 542Q368 542 422 489T476 342Q476 298 462 273T412 247H196Q202 102 320
102Q383 102 437 142ZM240 473T219 439T196 323H297Q313 323 318 334T323 368Q323 427 309 450T271 473Q240 473 219 439Z" />
<glyph unicode="f" glyph-name="f" horiz-adv-x="360" d="M320 822T353 803T403 757T421 702Q421 665 401 640T349 615Q319 615 296 636T273 686Q273 722 303 744Q300 749 293 752T279 756Q255 756 237 723T218 647Q218 618 223 591T236 547T251 530H347Q347 466
330 440H245V118Q245 94 252 81T280 61T342 54Q342 23 319 0H55Q32 23 32 54Q62 54 74 67T87 109V440H26V502Q59 510 85 529Q77 577 77 615Q77 717 130 769T275 822Q320 822 353 803Z" />
<glyph unicode="g" glyph-name="g" horiz-adv-x="529" d="M399 110T462 73T526 -38Q526 -89 488 -131T388 -198T254 -223Q135 -223 76 -181T17 -67Q17 -30 41 0T112 46Q92 60 86 79T79 126Q79 144 93 162T132 190Q85 215 59 259T32 354Q32 406 57 447T132 513T253
538H254Q290 538 316 533Q410 533 445 535T514 543Q524 543 529 530T535 501Q535 456 496 456Q487 456 441 474Q433 478 417 484Q450 457 468 423T486 356Q486 263 423 214T245 164Q217 164 182 171V168Q182 144 201 134T270 119Q399 110 462 73ZM230 472T217 439T203
343Q203 230 262 230Q294 230 308 264T322 368Q322 423 307 447T262 472Q230 472 217 439ZM333 -141T355 -119T377 -64Q377 -34 341 -20T226 8L181 17Q168 -5 168 -41Q168 -87 196 -114T287 -141Q333 -141 355 -119Z" />
<glyph unicode="h" glyph-name="h" horiz-adv-x="602" d="M583 27Q547 -6 473 -6Q372 -6 372 57V379Q372 411 355 428T307 446Q287 446 266 433T234 400V108Q234 79 246 67T289 54Q289 23 266 0H45Q22 23 22 54Q52 54 64 66T77 108V650Q77 675 63 687T10 699V740Q46
759 101 773T191 788Q214 788 224 778T234 742V545L232 465Q259 500 300 522T392 544Q462 544 498 507T534 396V116Q534 91 546 76T582 56L583 27Z" />
<glyph unicode="i" glyph-name="i" horiz-adv-x="312" d="M256 664T230 639T159 613Q116 613 91 638T65 707Q65 749 91 775T161 801Q204 801 230 775T256 707Q256 664 230 639ZM237 108Q237 79 251 67T296 54Q296 23 273 0H47Q24 23 24 54Q54 54 67 66T81 109V399Q81
427 68 439T15 451V495Q39 510 96 526T194 543Q217 543 227 533T237 497V108Z" />
<glyph unicode="j" glyph-name="j" horiz-adv-x="300" d="M256 664T230 639T159 613Q116 613 91 638T65 707Q65 749 91 775T161 801Q204 801 230 775T256 707Q256 664 230 639ZM41 -195T18 -179T-5 -141Q-5 -135 -2 -126T4 -112Q45 -112 66 -88T87 -3V402Q87 427
73 439T21 451V496Q57 514 113 528T201 543Q225 543 234 533T244 498V-10Q244 -100 199 -147T84 -195Q41 -195 18 -179Z" />
<glyph unicode="k" glyph-name="k" horiz-adv-x="585" d="M583 34Q580 13 556 2T493 -10Q442 -10 409 12T356 65T315 146Q293 195 277 221T234 257V104Q234 75 246 63T290 50Q290 19 266 -3H46Q22 18 22 50Q52 50 64 62T77 104V646Q77 671 63 683T10 696V736Q46
755 101 770T189 785Q213 785 223 774T234 738V293L344 407Q363 426 363 437Q363 451 342 463T300 475Q300 492 306 508T323 536H548Q567 517 567 475Q543 475 530 468T502 448L350 298Q387 292 412 274T459 217Q484 172 485 170Q518 109 534 89T582 58L583 34Z"
/>
<glyph unicode="l" glyph-name="l" horiz-adv-x="319" d="M84 640Q84 665 70 677T16 690V730Q52 750 107 764T196 778Q220 778 230 768T240 733V109Q240 78 252 66T295 54Q295 26 271 0H52Q29 25 29 54Q58 54 71 66T84 109V640Z" />
<glyph unicode="m" glyph-name="m" horiz-adv-x="906" d="M838 65T887 56V27Q849 -6 764 -6Q722 -6 698 5T674 46V379Q674 411 657 428T610 446Q574 446 548 422Q549 417 549 407V108Q549 79 561 67T599 54Q599 24 575 0H362Q339 25 339 54Q364 54 375 66T386
108V379Q386 410 368 428T323 446Q303 446 283 437T250 411V108Q250 79 260 67T296 54Q296 23 272 0H55Q31 24 31 54Q61 54 74 66T87 108V401Q87 428 72 439T20 451V495Q52 514 110 529T199 544Q221 544 233 531T250 480Q276 510 316 527T405 544Q505 544 535 477Q561
509 602 526T695 544Q766 544 802 509T838 407V108Q838 65 887 56Z" />
<glyph unicode="n" glyph-name="n" horiz-adv-x="611" d="M592 27Q577 12 539 3T465 -6Q422 -6 402 10T381 61V373Q381 412 364 429T319 446Q278 446 250 413V108Q250 79 262 66T305 53Q305 23 282 0H55Q31 24 31 53Q61 53 74 66T87 108V400Q87 427 72 438T20
450V495Q52 513 110 528T199 543Q222 543 234 529T249 474Q275 506 314 524T402 543Q474 543 508 507T543 387V114Q543 65 591 56L592 27Z" />
<glyph unicode="o" glyph-name="o" horiz-adv-x="546" d="M158 -13T92 56T26 255Q26 347 57 412T146 510T278 543Q350 543 404 512T489 419T520 271Q520 180 489 116T400 20T268 -13Q158 -13 92 56ZM311 59T328 99T345 247Q345 338 336 387T311 454T270 472Q235
472 218 432T200 282Q200 192 209 144T234 77T276 59Q311 59 328 99Z" />
<glyph unicode="p" glyph-name="p" horiz-adv-x="568" d="M260 -11T230 -9V-82Q230 -109 249 -123T294 -137Q294 -167 271 -190H50Q26 -166 26 -137Q55 -137 64 -125T73 -82V397Q73 424 58 435T6 447V492Q38 511 87 525T164 540Q185 540 198 532T217 500Q258 540
338 540Q393 540 439 512T512 428T540 290Q540 197 504 129T406 25T269 -11Q260 -11 230 -9ZM367 363T337 407T258 451Q242 451 230 445V72Q247 62 268 62Q312 62 339 113T367 266Q367 363 337 407Z" />
<glyph unicode="q" glyph-name="q" horiz-adv-x="561" d="M502 -126T514 -139T551 -157V-184Q532 -201 504 -209T430 -218Q389 -218 366 -207T343 -166V24Q306 -13 238 -13Q181 -13 134 15T57 100T28 239Q28 332 63 400T160 504T296 540Q352 540 414 520Q437 525
457 525H520Q532 514 538 498T544 465Q516 465 509 454T502 409V-103Q502 -126 514 -139ZM327 74T343 83V455Q324 468 297 468Q253 468 227 423T200 273Q200 174 229 124T307 74Q327 74 343 83Z" />
<glyph unicode="r" glyph-name="r" horiz-adv-x="450" d="M413 543T434 520T455 457Q455 414 433 387T372 360Q339 360 319 379T298 424Q298 440 301 449Q265 440 240 418V118Q240 93 247 80T274 61T336 54Q336 36 332 24T317 0H50Q27 23 27 54Q56 54 68 66T81
109V398Q81 425 67 436T15 447V492Q48 511 102 525T187 540Q211 540 221 523T231 455Q249 489 288 516T368 543Q413 543 434 520Z" />
<glyph unicode="s" glyph-name="s" horiz-adv-x="475" d="M182 -10T134 4T54 46T23 110Q23 145 43 166T94 188Q122 188 141 170T161 123Q161 110 158 101T145 80Q153 72 175 68T222 63Q256 63 275 75T295 108Q295 135 270 154T190 203Q134 233 105 252T54 305T31
388Q31 456 87 498T242 540Q339 540 386 506T434 423Q434 393 415 374T367 355Q341 355 323 370T304 411Q304 424 308 437T319 460Q299 476 259 476Q227 476 209 461T191 423Q191 392 216 372T296 324Q348 297 378 277T430 224T452 143Q452 65 389 28T231 -10Q182
-10 134 4Z" />
<glyph unicode="t" glyph-name="t" horiz-adv-x="377" d="M231 441V159Q231 129 243 118T277 106Q296 106 317 116T350 141Q360 133 364 117T369 88Q369 65 353 43T305 7T228 -7Q158 -7 116 33T73 166V441H10V502Q36 506 60 535T102 609T125 698Q143 701 158 701Q194
701 211 681T229 635V530H345Q345 500 342 479T329 441H231Z" />
<glyph unicode="u" glyph-name="u" horiz-adv-x="572" d="M512 93T524 77T560 59V31Q544 13 511 3T443 -7Q409 -7 385 11T353 61Q305 -7 216 -7Q146 -7 107 36T68 152V427Q68 444 56 451T19 458V502Q34 514 76 526T167 538Q195 538 208 535T226 520T231 485V149Q231
118 241 103T276 87Q296 87 315 99T349 130V427Q349 458 293 458V502Q309 515 351 526T445 538Q486 538 499 529T512 485V117Q512 93 524 77Z" />
<glyph unicode="v" glyph-name="v" horiz-adv-x="528" d="M241 269L287 94L333 269L372 405Q376 421 376 429Q376 450 363 460T324 471Q324 512 343 531H537Q557 511 557 471Q532 471 519 459T497 419L393 100Q376 41 355 17T291 -7H187L29 419Q18 448 7 459T-29
471Q-29 510 -8 531H220Q231 520 237 504T243 471Q222 471 209 460T196 426Q196 419 200 405L241 269Z" />
<glyph unicode="w" glyph-name="w" horiz-adv-x="796" d="M825 512T825 471Q796 471 781 461T758 425L669 102Q657 59 647 37T619 4T569 -7H490L396 293L342 100Q327 45 313 23T267 -6V-7H165L29 419Q19 448 8 459T-29 471Q-29 510 -8 531H217Q228 520 234 504T240
471Q219 471 206 460T193 426Q193 422 194 416T197 405L223 269L253 128L297 269L326 373Q341 432 356 458T403 485L480 484L532 270L576 132L598 270L631 411Q635 426 635 438Q635 456 625 463T595 471Q595 512 614 531H805Q825 512 825 471Z" />
<glyph unicode="x" glyph-name="x" horiz-adv-x="541" d="M485 91T504 75T543 58Q543 20 523 0H284Q263 20 263 58Q283 58 293 65T303 86Q303 102 292 118L235 194L182 123Q171 108 171 94Q171 78 183 68T217 58Q217 20 197 0H15Q-10 25 -10 58Q11 61 34 76T72
112L193 260L78 410Q71 417 61 431Q46 451 34 461T4 471Q4 514 25 531H248Q268 515 268 471Q235 471 235 450Q235 433 249 414L300 344L342 397Q356 435 356 444Q356 457 347 464T325 471Q325 514 345 531H518Q539 514 539 471Q513 471 494 460T452 420L342 288L462
122Q485 91 504 75Z" />
<glyph unicode="y" glyph-name="y" horiz-adv-x="530" d="M560 510T560 470Q536 470 522 458T499 418L385 63Q340 -83 289 -147T161 -211Q101 -211 69 -186T37 -123Q37 -99 48 -80T78 -53Q105 -85 158 -85Q190 -85 221 -54T272 37H190L36 411Q34 417 26 436T6
462T-25 470Q-25 509 -4 531H232Q256 505 256 470Q210 470 210 424Q210 406 215 391L308 120L374 404Q377 418 377 428Q377 470 328 470Q328 511 347 531H540Q560 510 560 470Z" />
<glyph unicode="z" glyph-name="z" horiz-adv-x="507" d="M315 68T343 83T385 124T411 196H486V161Q486 110 481 71T460 0H36L8 38L256 410L304 463H220Q173 463 152 437T131 351H51Q40 382 38 418T34 530H459L489 489L260 131L200 68H266Q315 68 343 83Z" />
<glyph unicode="{" glyph-name="braceleft" horiz-adv-x="490" d="M223 300T254 262T285 171V48Q285 -28 313 -59T397 -91H433Q449 -122 449 -154H394Q256 -154 188 -85T120 110V205Q120 245 97 272T44 300V349Q73 349 96 377T120 445V539Q120 665 188 734T394
803H449Q449 770 433 741H397Q342 741 314 710T285 601V478Q285 425 254 387T161 325Q223 300 254 262Z" />
<glyph unicode="|" glyph-name="bar" horiz-adv-x="112" d="M96 -253Q86 -258 65 -258Q37 -258 16 -250V714Q28 720 47 720Q74 720 96 711V-253Z" />
<glyph unicode="}" glyph-name="braceright" horiz-adv-x="490" d="M267 349T236 387T205 478V601Q205 678 177 709T93 741H57Q41 770 41 803H96Q234 803 302 734T370 539V445Q370 405 393 377T446 349V300Q417 300 394 273T370 205V110Q370 -16 302 -85T96 -154H41Q41
-122 57 -91H93Q148 -91 176 -60T205 48V171Q205 224 236 262T329 325Q267 349 236 387Z" />
<glyph unicode="~" glyph-name="asciitilde" horiz-adv-x="628" d="M516 390T521 390Q539 390 558 371T578 332Q578 326 577 323Q570 297 546 272T486 230T405 213Q370 213 345 224T288 256Q263 272 249 279T216 287Q169 287 117 235Q113 232 107 232Q89 232 70
250T50 289Q50 295 51 298Q59 323 85 349T147 391T223 408Q266 408 294 396T355 361Q374 347 386 341T412 335Q459 335 511 387Q516 390 521 390Z" />
<glyph unicode="&#xa0;" glyph-name="uni00A0" horiz-adv-x="190" />
<glyph unicode="&#xa1;" glyph-name="exclamdown" horiz-adv-x="272" d="M35 474T62 501T136 529Q182 529 209 502T237 429Q237 385 210 358T136 331Q90 331 63 358T35 429Q35 474 62 501ZM177 208L226 -183Q228 -199 228 -204Q228 -272 158 -272H115Q80 -272
62 -256T44 -204Q44 -191 45 -183L95 208H177Z" />
<glyph unicode="&#xa2;" glyph-name="cent" horiz-adv-x="495" d="M391 -28T431 1Q439 -8 444 -22T449 -48Q449 -67 432 -87T381 -121T304 -139V-255Q295 -260 279 -260Q258 -260 239 -252V-135Q148 -120 95 -49T41 135Q41 246 95 319T239 412V549Q249 554 265
554Q285 554 304 545V419Q378 418 416 389T455 307Q455 262 432 237T369 211Q336 211 315 232T293 283Q293 318 326 340Q312 348 296 348Q261 348 236 306T210 171Q210 62 242 17T335 -28Q391 -28 431 1Z" />
<glyph unicode="&#xa3;" glyph-name="sterling" horiz-adv-x="632" d="M571 263T589 234T608 175Q608 128 585 90T517 29T411 6Q372 6 304 20Q271 27 249 30T203 34Q168 34 129 26T60 5Q57 8 49 17T36 34T31 54Q91 92 116 143T142 256Q142 285 135 322H57V390H115Q98
440 90 469T82 532Q82 620 146 674T337 728Q417 728 470 706T548 648T573 573Q573 532 548 504T482 475Q447 475 423 495T399 550Q399 575 412 593T445 621Q431 639 408 648T356 657Q309 657 283 630T257 548Q257 524 261 486T268 434L274 390H412Q412 366 409
350T393 322H280V310Q280 251 257 197T190 105Q262 135 337 135H383Q429 135 452 155T482 198T498 268H546Q571 263 589 234Z" />
<glyph unicode="&#xa4;" glyph-name="currency" horiz-adv-x="681" d="M568 212T526 152L623 58Q614 43 598 27T565 0L472 98Q412 56 340 56Q267 56 209 98L116 0Q100 10 83 26T57 57L155 151Q112 210 112 283Q112 356 155 415L58 508Q67 524 83 541T114 566L208
468Q268 510 340 510Q413 510 471 468L565 566Q580 557 596 541T623 508L526 415Q568 355 568 283Q568 212 526 152ZM194 244T214 211T267 157T340 137Q379 137 412 157T466 210T486 283Q486 322 466 355T413 409T340 429Q301 429 268 409T214 356T194 283Q194
244 214 211Z" />
<glyph unicode="&#xa5;" glyph-name="yen" horiz-adv-x="808" d="M495 337V245H727Q727 205 700 176H495V144Q495 94 574 94Q574 76 568 59T551 30H282Q271 42 265 59T259 94Q337 94 337 144V176H126V245H337V325L317 355H126V424H281L138 620Q125 637 102 651T60
665Q60 682 66 699T83 728H383Q394 716 400 699T407 665Q374 665 357 654T340 620Q340 592 353 575L443 449L539 601Q543 608 543 622Q543 640 530 652T493 665Q493 682 499 699T516 728H724Q735 716 741 699T748 665Q710 665 692 652T663 615L545 424H727Q727
382 700 355H506L495 337Z" />
<glyph unicode="&#xa6;" glyph-name="brokenbar" horiz-adv-x="112" d="M16 715Q28 721 47 721Q73 721 96 712V302H16V715ZM96 -252Q86 -257 65 -257Q37 -257 16 -249V162H96V-252Z" />
<glyph unicode="&#xa7;" glyph-name="section" horiz-adv-x="625" d="M490 69T519 24T548 -79Q548 -172 480 -218T311 -265Q266 -265 232 -256T166 -230L99 -265Q89 -224 82 -156T75 -38H166Q186 -119 222 -156T307 -194Q345 -194 371 -173T397 -115Q397 -71 362
-40T263 26Q197 62 155 91T83 163T52 263Q52 388 189 417Q135 456 107 500T79 601Q79 693 146 739T313 786Q362 786 391 777T452 751L519 786Q530 754 536 699T543 592Q543 570 542 559H452Q432 639 401 677T318 715Q278 715 254 694T229 637Q229 593 264 562T364
496Q431 460 472 432T544 360T574 259Q574 195 539 158T433 108Q490 69 519 24ZM204 271T222 247T273 202T372 145Q398 154 410 174T422 217Q422 262 384 295T273 366L255 376Q229 367 217 347T204 304Q204 271 222 247Z" />
<glyph unicode="&#xa8;" glyph-name="dieresis" horiz-adv-x="466" d="M191 668T170 641T111 613Q72 613 51 640T30 708Q30 748 51 774T111 801Q149 801 170 775T191 709Q191 668 170 641ZM436 668T415 641T355 613Q317 613 296 640T275 708Q275 748 296 774T355
801Q394 801 415 775T436 709Q436 668 415 641Z" />
<glyph unicode="&#xa9;" glyph-name="copyright" horiz-adv-x="872" d="M332 3T250 50T121 179T74 365Q74 468 120 550T249 679T436 726Q541 726 623 680T751 551T798 365Q798 262 752 180T623 50T436 3Q332 3 250 50ZM350 663T282 624T177 517T139 365Q139 281
176 213T282 106T436 67Q523 67 591 106T696 213T734 365Q734 449 697 517T591 624T436 663Q350 663 282 624ZM517 427Q512 465 492 485T445 506Q413 506 394 479T375 391Q375 313 406 275T484 236Q509 236 528 245T555 268Q561 262 565 249T570 225Q570 208 556
191T514 163T449 152Q396 152 354 176T288 249T264 364Q264 432 288 479T353 550T441 574Q474 574 502 560Q513 564 527 568T551 573Q568 528 568 427H517Z" />
<glyph unicode="&#xaa;" glyph-name="ordfeminine" horiz-adv-x="459" d="M40 547T76 578T172 609Q194 609 215 605T251 593V691Q251 743 205 743Q178 743 165 731Q193 719 193 691Q193 668 176 654T132 640Q102 640 84 657T66 702Q66 727 84 749T139 786T230
800Q383 800 383 682V482Q383 447 418 439L419 415Q408 402 385 395T336 387Q282 387 261 422Q222 387 167 387Q111 387 76 419T40 499Q40 547 76 578ZM251 531Q231 544 214 544Q196 544 184 532T172 499Q172 477 184 465T216 452Q239 452 251 464V531Z" />
<glyph unicode="&#xab;" glyph-name="guillemotleft" horiz-adv-x="562" d="M246 530T260 502L173 326L260 150Q246 122 212 107L27 296V357L212 544Q246 530 260 502ZM436 326L531 150Q517 122 483 107L288 296V357L483 544Q517 531 531 502L436 326Z" />
<glyph unicode="&#xac;" glyph-name="logicalnot" horiz-adv-x="608" d="M558 381V107Q538 100 504 100Q474 100 451 107V279H57Q50 296 50 329Q50 365 58 381H558Z" />
<glyph unicode="&#xad;" glyph-name="uni00AD" horiz-adv-x="496" d="M445 314Q448 306 450 289T452 258Q452 232 446 214H51Q44 229 44 258Q44 274 46 291T51 314H445Z" />
<glyph unicode="&#xae;" glyph-name="registered" horiz-adv-x="872" d="M541 726T623 680T751 551T798 365Q798 262 752 180T623 50T436 3Q332 3 250 50T121 179T74 365Q74 468 120 550T249 679T436 726Q541 726 623 680ZM523 67T591 106T696 213T734 365Q734
449 697 517T591 624T436 663Q350 663 282 624T177 517T139 365Q139 281 176 213T282 106T436 67Q523 67 591 106ZM563 285T568 277Q588 248 601 235T640 211V192Q620 169 579 169Q545 169 522 182T486 214T458 265Q445 292 436 306T413 331H406V247Q406 220 447
220Q447 195 434 177H278Q266 194 266 220Q284 220 292 226T300 247V482Q300 497 292 503T266 509Q266 533 278 552L306 554Q373 559 400 559Q505 559 546 533T587 453Q587 375 511 346Q526 336 553 299Q563 285 568 277ZM406 387Q410 385 417 385Q477 385 477
446Q477 473 464 487T413 501H406V387Z" />
<glyph unicode="&#xaf;" glyph-name="overscore" horiz-adv-x="386" d="M350 717Q356 701 356 666Q356 632 351 617H36Q30 634 30 666Q30 704 37 717H350Z" />
<glyph unicode="&#xb0;" glyph-name="degree" horiz-adv-x="412" d="M128 503T83 547T37 662Q37 733 84 777T206 822Q284 822 329 777T375 662Q375 592 329 548T205 503Q128 503 83 547ZM255 556T255 662Q255 769 206 769Q184 769 170 745T155 662Q155 605 169
581T206 556Q255 556 255 662Z" />
<glyph unicode="&#xb1;" glyph-name="plusminus" horiz-adv-x="629" d="M571 114Q579 95 579 55Q579 16 571 0H58Q50 19 50 55Q50 97 60 114H257V307H58Q50 326 50 362Q50 404 60 421H257V620Q278 629 315 629Q353 629 371 620V421H571Q579 402 579 362Q579 323
571 307H371V114H571Z" />
<glyph unicode="&#xb2;" glyph-name="uni00B2" horiz-adv-x="427" d="M372 668T379 653T387 620Q387 587 362 563T275 539Q246 539 213 544Q180 549 136 549Q86 549 53 538L30 552Q40 599 70 637T148 712Q185 742 203 758T233 797T246 848Q246 882 227 902T178
923Q158 923 142 914T116 889Q132 884 141 872T150 844Q150 824 134 811T94 798Q67 798 50 813T32 854Q32 903 78 934T200 965Q273 965 321 932T370 841Q370 807 353 782T312 740T244 699L219 685Q175 660 152 645T112 610Q159 626 207 626H254Q288 626 313 639T346
676H361Q372 668 379 653Z" />
<glyph unicode="&#xb3;" glyph-name="uni00B3" horiz-adv-x="418" d="M317 756T347 728T378 656Q378 620 354 592T286 549T187 533Q117 533 74 556T30 621Q30 645 44 657T81 670Q102 670 115 659T129 633Q129 613 112 602Q120 594 138 589T175 584Q213 584 236
603T259 653Q259 684 236 705T172 726H154L141 763Q197 777 215 800T233 855Q233 886 217 904T172 923Q157 923 143 916T119 897Q127 894 134 885T141 865Q141 851 128 840T93 828Q69 828 56 841T42 876Q42 915 86 940T193 965Q261 965 305 938T349 867Q349 830
328 806T263 764Q317 756 347 728Z" />
<glyph unicode="&#xb4;" glyph-name="acute" horiz-adv-x="339" d="M247 864T267 852T298 820T309 784Q309 750 268 711T173 645T83 617Q62 617 48 628T30 663Q84 698 137 752T222 864Q247 864 267 852Z" />
<glyph unicode="&#xb5;" glyph-name="uni00B5" horiz-adv-x="959" d="M793 -117Q739 -193 658 -193Q614 -193 579 -173T531 -115Q503 -153 466 -173T391 -193Q344 -193 307 -163L325 -315L326 -328Q326 -360 307 -378T253 -396H191L194 -4V391Q194 414 221 427T285
441Q323 441 350 428T377 389V-17Q377 -50 395 -68T441 -87Q465 -87 487 -74T525 -38V391Q525 414 552 427T616 441Q654 441 681 428T709 389V-48Q709 -68 716 -78T737 -88Q749 -88 763 -81L793 -117Z" />
<glyph unicode="&#xb6;" glyph-name="paragraph" horiz-adv-x="790" d="M527 38V690Q527 711 524 721T512 736T480 741Q448 741 438 730T427 690V38H203Q180 61 180 102Q227 102 249 109T281 137T290 197V392Q279 387 262 385T230 383Q151 383 110 443T68 604Q68
670 84 717T154 794T310 825Q323 825 347 823T385 820Q395 819 429 816T488 813H703Q714 801 720 785T726 750Q693 750 679 738T664 699V152Q664 125 678 114T726 102Q726 84 720 67T703 38H527Z" />
<glyph unicode="&#xb7;" glyph-name="middot" horiz-adv-x="255" d="M229 288T201 261T128 233Q82 233 54 260T26 332Q26 377 54 404T128 431Q173 431 201 404T229 332Q229 288 201 261Z" />
<glyph unicode="&#xb8;" glyph-name="cedilla" horiz-adv-x="362" d="M84 -130L135 12H218L174 -92Q198 -84 229 -84Q277 -84 304 -112T332 -177Q332 -207 313 -235T257 -282T169 -300Q122 -300 85 -288T30 -258Q30 -244 37 -230T54 -206Q102 -240 152 -240Q178
-240 192 -224T207 -191Q207 -175 195 -160T159 -145Q143 -145 121 -151L84 -130Z" />
<glyph unicode="&#xb9;" glyph-name="uni00B9" horiz-adv-x="350" d="M238 647Q238 618 259 608T320 597Q320 586 316 569T305 546H63Q56 551 51 569T46 597Q90 597 113 607T136 647V847Q136 859 127 873T102 887Q81 887 55 879L38 929L89 942Q117 949 153 957T199
966Q219 966 228 956T238 933V647Z" />
<glyph unicode="&#xba;" glyph-name="ordmasculine" horiz-adv-x="447" d="M139 384T90 437T40 582Q40 648 63 697T129 773T227 800Q309 800 358 749T407 606Q407 541 384 491T318 412T220 384Q139 384 90 437ZM249 439T260 474T272 589Q272 681 260 713T221 746Q198
746 187 712T175 600Q175 508 187 474T226 439Q249 439 260 474Z" />
<glyph unicode="&#xbb;" glyph-name="guillemotright" horiz-adv-x="564" d="M45 529T79 543L274 356V295L79 106Q45 121 31 149L126 325L31 501Q45 529 79 543ZM537 356V295L352 106Q318 121 304 149L391 325L304 501Q318 529 352 543L537 356Z" />
<glyph unicode="&#xbc;" glyph-name="onequarter" horiz-adv-x="887" d="M238 485Q238 456 259 446T320 435Q320 424 316 407T305 384H63Q56 389 51 407T46 435Q90 435 113 445T136 485V685Q136 697 127 711T102 725Q81 725 55 717L38 767L89 780Q117 787 153
795T199 804Q219 804 228 794T238 771V485ZM583 731H649L215 -10L150 -11L583 731ZM887 144T860 129T770 112V68Q770 50 788 42T842 34Q842 26 838 16T825 0H598Q592 6 588 16T584 34Q658 34 658 68V112H465L449 141L648 413H770V162Q827 162 844 206H860Q872 203
879 193T887 170Q887 144 860 129ZM658 162V346L534 162H658Z" />
<glyph unicode="&#xbd;" glyph-name="onehalf" horiz-adv-x="876" d="M238 485Q238 456 259 446T320 435Q320 424 316 407T305 384H63Q56 389 51 407T46 435Q90 435 113 445T136 485V685Q136 697 127 711T102 725Q81 725 55 717L38 767L89 780Q117 787 153 795T199
804Q219 804 228 794T238 771V485ZM583 731H649L215 -10L150 -11L583 731ZM821 124T828 109T836 76Q836 43 811 19T724 -5Q695 -5 662 0Q629 5 585 5Q535 5 502 -6L479 8Q489 55 519 93T597 168Q634 198 652 214T682 253T695 304Q695 338 676 358T627 379Q607 379
591 370T565 345Q581 340 590 328T599 300Q599 280 583 267T543 254Q516 254 499 269T481 310Q481 359 527 390T649 421Q722 421 770 388T819 297Q819 263 802 238T761 196T693 155L668 141Q624 116 601 101T561 66Q608 82 656 82H703Q737 82 762 95T795 132H810Q821
124 828 109Z" />
<glyph unicode="&#xbe;" glyph-name="threequarters" horiz-adv-x="955" d="M317 596T347 568T378 496Q378 460 354 432T286 389T187 373Q117 373 74 396T30 461Q30 485 44 497T81 510Q102 510 115 499T129 473Q129 453 112 442Q120 434 138 429T175 424Q213 424
236 443T259 493Q259 524 236 545T172 566H154L141 603Q197 617 215 640T233 695Q233 726 217 744T172 763Q157 763 143 756T119 737Q127 734 134 725T141 705Q141 691 128 680T93 668Q69 668 56 681T42 716Q42 755 86 780T193 805Q261 805 305 778T349 707Q349
670 328 646T263 604Q317 596 347 568ZM651 731H717L283 -10L218 -11L651 731ZM955 144T928 129T838 112V68Q838 50 856 42T910 34Q910 26 906 16T893 0H666Q660 6 656 16T652 34Q726 34 726 68V112H533L517 141L716 413H838V162Q895 162 912 206H928Q940 203 947
193T955 170Q955 144 928 129ZM726 162V346L602 162H726Z" />
<glyph unicode="&#xbf;" glyph-name="questiondown" horiz-adv-x="532" d="M147 475T174 502T248 529Q293 529 321 502T349 430Q349 385 321 358T248 331Q202 331 175 358T147 430Q147 475 174 502ZM187 -272T133 -249T50 -185T20 -91Q20 -13 81 45T241 141L223
245H318L345 118Q199 28 199 -92Q199 -144 224 -169T290 -195Q320 -195 346 -181T388 -143Q360 -134 340 -113T320 -61Q320 -25 347 -2T409 22Q449 22 480 -7T512 -87Q512 -136 481 -178T392 -246T258 -272Q187 -272 133 -249Z" />
<glyph unicode="&#xc0;" glyph-name="Agrave" horiz-adv-x="657" d="M612 100T636 82T687 64Q687 46 681 29T664 0H393Q382 12 376 29T370 64Q427 64 427 112Q427 132 420 159L414 180H190L184 159Q175 128 175 115Q175 64 239 64Q239 46 233 29T216 0H-7Q-18
12 -24 29T-30 64Q-2 64 21 80T55 129L219 613Q179 626 118 626Q118 669 142 698H416L602 132Q612 100 636 82ZM392 258L321 506Q312 536 298 557L212 258H392ZM261 947T314 893T422 804Q419 781 405 770T369 758Q335 758 280 785T184 852T143 925Q143 942 154
961T185 992T230 1005Q261 947 314 893Z" />
<glyph unicode="&#xc1;" glyph-name="Aacute" horiz-adv-x="657" d="M612 100T636 82T687 64Q687 46 681 29T664 0H393Q382 12 376 29T370 64Q427 64 427 112Q427 132 420 159L414 180H190L184 159Q175 128 175 115Q175 64 239 64Q239 46 233 29T216 0H-7Q-18
12 -24 29T-30 64Q-2 64 21 80T55 129L219 613Q179 626 118 626Q118 669 142 698H416L602 132Q612 100 636 82ZM392 258L321 506Q312 536 298 557L212 258H392ZM428 1005T448 993T479 961T490 925Q490 891 449 852T354 786T264 758Q243 758 229 769T211 804Q265
839 318 893T403 1005Q428 1005 448 993Z" />
<glyph unicode="&#xc2;" glyph-name="Acircumflex" horiz-adv-x="657" d="M612 100T636 82T687 64Q687 46 681 29T664 0H393Q382 12 376 29T370 64Q427 64 427 112Q427 132 420 159L414 180H190L184 159Q175 128 175 115Q175 64 239 64Q239 46 233 29T216 0H-7Q-18
12 -24 29T-30 64Q-2 64 21 80T55 129L219 613Q179 626 118 626Q118 669 142 698H416L602 132Q612 100 636 82ZM392 258L321 506Q312 536 298 557L212 258H392ZM311 852L179 753Q160 760 145 774T125 804L273 968H349L498 804Q492 788 477 774T443 753L311 852Z"
/>
<glyph unicode="&#xc3;" glyph-name="Atilde" horiz-adv-x="657" d="M612 100T636 82T687 64Q687 46 681 29T664 0H393Q382 12 376 29T370 64Q427 64 427 112Q427 132 420 159L414 180H190L184 159Q175 128 175 115Q175 64 239 64Q239 46 233 29T216 0H-7Q-18
12 -24 29T-30 64Q-2 64 21 80T55 129L219 613Q179 626 118 626Q118 669 142 698H416L602 132Q612 100 636 82ZM392 258L321 506Q312 536 298 557L212 258H392ZM454 905T459 905Q469 905 480 896T498 873T502 847Q493 811 459 785T375 758Q348 758 331 767T293
795Q277 809 267 815T242 822Q224 822 208 814T171 783Q168 780 163 780Q153 780 142 789T124 812T120 838Q129 872 166 900T248 928Q281 928 301 917T341 887Q354 875 362 870T381 864Q400 864 415 871T451 902Q454 905 459 905Z" />
<glyph unicode="&#xc4;" glyph-name="Adieresis" horiz-adv-x="657" d="M612 100T636 82T687 64Q687 46 681 29T664 0H393Q382 12 376 29T370 64Q427 64 427 112Q427 132 420 159L414 180H190L184 159Q175 128 175 115Q175 64 239 64Q239 46 233 29T216 0H-7Q-18
12 -24 29T-30 64Q-2 64 21 80T55 129L219 613Q179 626 118 626Q118 669 142 698H416L602 132Q612 100 636 82ZM392 258L321 506Q312 536 298 557L212 258H392ZM269 809T248 782T189 754Q151 754 130 781T108 849Q108 888 129 915T189 942Q226 942 247 915T269
849Q269 809 248 782ZM514 809T493 782T433 754Q396 754 375 781T353 849Q353 888 374 915T433 942Q471 942 492 915T514 849Q514 809 493 782Z" />
<glyph unicode="&#xc5;" glyph-name="Aring" horiz-adv-x="657" d="M612 100T636 82T687 64Q687 46 681 29T664 0H393Q382 12 376 29T370 64Q427 64 427 112Q427 132 420 159L414 180H190L184 159Q175 128 175 115Q175 64 239 64Q239 46 233 29T216 0H-7Q-18 12
-24 29T-30 64Q-2 64 21 80T55 129L219 613Q179 626 118 626Q118 669 142 698H416L602 132Q612 100 636 82ZM392 258L321 506Q312 536 298 557L212 258H392ZM451 824T412 786T309 748Q245 748 207 786T168 886Q168 948 206 986T309 1025Q373 1025 412 987T451 886Q451
824 412 786ZM365 911T350 926T309 941Q284 941 269 926T254 885Q254 861 269 846T309 830Q334 830 349 845T365 885Q365 911 350 926Z" />
<glyph unicode="&#xc6;" glyph-name="AE" horiz-adv-x="900" d="M884 211Q884 178 868 94T839 -16Q823 -12 797 0H341Q318 28 318 63Q351 63 365 75T379 115V164H176L174 159Q160 128 160 109Q160 86 176 75T222 64Q222 26 199 0H-33Q-43 13 -49 30T-55 64Q-29
64 -6 81T32 128L252 570Q247 597 217 613T140 629Q121 629 101 626Q101 646 107 665T123 698H723Q740 706 762 710T804 715Q819 686 836 635T854 561Q842 550 813 538T763 522Q750 559 722 586T657 613H544V402H616Q681 402 681 475Q726 475 762 454V268Q746 258
725 253T682 247Q682 285 664 304T617 323H544V88H665Q707 88 738 123T777 211H884ZM379 242V616L213 242H379Z" />
<glyph unicode="&#xc7;" glyph-name="Ccedilla" horiz-adv-x="570" d="M538 153T546 135T554 102Q554 77 529 50T455 5T344 -14H326L307 -97Q331 -89 362 -89Q410 -89 437 -117T465 -182Q465 -212 446 -240T390 -287T302 -305Q255 -305 218 -293T163 -263Q163
-249 170 -235T187 -211Q235 -245 285 -245Q311 -245 325 -229T340 -196Q340 -180 328 -165T292 -150Q276 -150 254 -156L217 -135L246 0Q146 30 86 120T25 352Q25 467 64 547T173 668T338 709Q360 709 388 703T437 687Q452 694 481 701T526 709Q555 638 555 475H442Q433
542 406 582T335 622Q274 622 238 565T202 387Q202 242 258 175T403 108Q446 108 479 124T526 162Q538 153 546 135Z" />
<glyph unicode="&#xc8;" glyph-name="Egrave" horiz-adv-x="615" d="M599 211Q599 178 583 94T554 -16Q538 -12 512 0H49Q26 30 26 63Q60 63 76 75T92 115V584Q92 611 77 623T27 635Q27 668 50 698H438Q455 706 477 710T519 715Q534 686 551 635T569 561Q557 550
528 538T478 522Q465 559 437 586T372 613H259V402H331Q396 402 396 475Q441 475 477 454V268Q461 258 440 253T397 247Q397 285 379 304T332 323H259V88H380Q422 88 453 123T492 211H599ZM260 947T313 893T421 804Q418 781 404 770T368 758Q334 758 279 785T183
852T142 925Q142 942 153 961T184 992T229 1005Q260 947 313 893Z" />
<glyph unicode="&#xc9;" glyph-name="Eacute" horiz-adv-x="615" d="M599 211Q599 178 583 94T554 -16Q538 -12 512 0H49Q26 30 26 63Q60 63 76 75T92 115V584Q92 611 77 623T27 635Q27 668 50 698H438Q455 706 477 710T519 715Q534 686 551 635T569 561Q557 550
528 538T478 522Q465 559 437 586T372 613H259V402H331Q396 402 396 475Q441 475 477 454V268Q461 258 440 253T397 247Q397 285 379 304T332 323H259V88H380Q422 88 453 123T492 211H599ZM427 1005T447 993T478 961T489 925Q489 891 448 852T353 786T263 758Q242
758 228 769T210 804Q264 839 317 893T402 1005Q427 1005 447 993Z" />
<glyph unicode="&#xca;" glyph-name="Ecircumflex" horiz-adv-x="615" d="M599 211Q599 178 583 94T554 -16Q538 -12 512 0H49Q26 30 26 63Q60 63 76 75T92 115V584Q92 611 77 623T27 635Q27 668 50 698H438Q455 706 477 710T519 715Q534 686 551 635T569 561Q557
550 528 538T478 522Q465 559 437 586T372 613H259V402H331Q396 402 396 475Q441 475 477 454V268Q461 258 440 253T397 247Q397 285 379 304T332 323H259V88H380Q422 88 453 123T492 211H599ZM310 852L178 753Q159 760 144 774T124 804L272 968H348L497 804Q491
788 476 774T442 753L310 852Z" />
<glyph unicode="&#xcb;" glyph-name="Edieresis" horiz-adv-x="615" d="M599 211Q599 178 583 94T554 -16Q538 -12 512 0H49Q26 30 26 63Q60 63 76 75T92 115V584Q92 611 77 623T27 635Q27 668 50 698H438Q455 706 477 710T519 715Q534 686 551 635T569 561Q557
550 528 538T478 522Q465 559 437 586T372 613H259V402H331Q396 402 396 475Q441 475 477 454V268Q461 258 440 253T397 247Q397 285 379 304T332 323H259V88H380Q422 88 453 123T492 211H599ZM268 809T247 782T188 754Q150 754 129 781T107 849Q107 888 128 915T188
942Q225 942 246 915T268 849Q268 809 247 782ZM513 809T492 782T432 754Q395 754 374 781T352 849Q352 888 373 915T432 942Q470 942 491 915T513 849Q513 809 492 782Z" />
<glyph unicode="&#xcc;" glyph-name="Igrave" horiz-adv-x="345" d="M51 0Q41 12 35 29T29 64Q62 64 75 75T89 114V584Q89 612 76 623T29 635Q29 652 35 669T51 698H294Q304 686 310 669T316 635Q283 635 270 624T256 584V114Q256 86 269 75T316 64Q316 46 310
29T294 0H51ZM122 947T175 893T283 804Q280 781 266 770T230 758Q196 758 141 785T45 852T4 925Q4 942 15 961T46 992T91 1005Q122 947 175 893Z" />
<glyph unicode="&#xcd;" glyph-name="Iacute" horiz-adv-x="345" d="M51 0Q41 12 35 29T29 64Q62 64 75 75T89 114V584Q89 612 76 623T29 635Q29 652 35 669T51 698H294Q304 686 310 669T316 635Q283 635 270 624T256 584V114Q256 86 269 75T316 64Q316 46 310
29T294 0H51ZM289 1005T309 993T340 961T351 925Q351 891 310 852T215 786T125 758Q104 758 90 769T72 804Q126 839 179 893T264 1005Q289 1005 309 993Z" />
<glyph unicode="&#xce;" glyph-name="Icircumflex" horiz-adv-x="345" d="M51 0Q41 12 35 29T29 64Q62 64 75 75T89 114V584Q89 612 76 623T29 635Q29 652 35 669T51 698H294Q304 686 310 669T316 635Q283 635 270 624T256 584V114Q256 86 269 75T316 64Q316 46
310 29T294 0H51ZM172 852L40 753Q21 760 6 774T-14 804L134 968H210L359 804Q353 788 338 774T304 753L172 852Z" />
<glyph unicode="&#xcf;" glyph-name="Idieresis" horiz-adv-x="345" d="M51 0Q41 12 35 29T29 64Q62 64 75 75T89 114V584Q89 612 76 623T29 635Q29 652 35 669T51 698H294Q304 686 310 669T316 635Q283 635 270 624T256 584V114Q256 86 269 75T316 64Q316 46
310 29T294 0H51ZM130 809T109 782T50 754Q12 754 -9 781T-31 849Q-31 888 -10 915T50 942Q87 942 108 915T130 849Q130 809 109 782ZM375 809T354 782T294 754Q257 754 236 781T214 849Q214 888 235 915T294 942Q332 942 353 915T375 849Q375 809 354 782Z" />
<glyph unicode="&#xd0;" glyph-name="Eth" horiz-adv-x="668" d="M417 710T492 664T604 540T641 364Q641 257 604 173T488 39T292 -11Q269 -11 236 -8Q129 0 48 0Q26 28 26 64Q59 64 73 75T88 115V333H39V411H88V585Q88 612 74 623T26 635Q26 673 48 698Q124 698
185 702T257 707Q291 710 306 710Q417 710 492 664ZM370 72T416 137T463 349Q463 490 414 560T276 630Q259 630 252 628V411H360Q360 381 358 363T344 333H252V74Q262 72 284 72Q370 72 416 137Z" />
<glyph unicode="&#xd1;" glyph-name="Ntilde" horiz-adv-x="724" d="M210 114Q210 63 283 63Q283 28 260 0H52Q30 27 30 63Q65 63 82 75T99 114V584Q99 635 26 635Q26 652 32 669T48 698H187Q216 698 245 676T300 613L527 254V584Q527 611 509 623T456 635Q456
653 462 669T479 698H692Q703 686 709 669T715 635Q681 635 664 623T646 584V-6H606Q557 -6 534 6T490 50L210 475V114ZM516 905T521 905Q531 905 542 896T560 873T564 847Q555 811 521 785T437 758Q410 758 393 767T355 795Q339 809 329 815T304 822Q286 822 270
814T233 783Q230 780 225 780Q215 780 204 789T186 812T182 838Q191 872 228 900T310 928Q343 928 363 917T403 887Q416 875 424 870T443 864Q462 864 477 871T513 902Q516 905 521 905Z" />
<glyph unicode="&#xd2;" glyph-name="Ograve" horiz-adv-x="669" d="M238 -13T169 31T62 158T25 348Q25 461 63 542T170 667T333 710Q429 710 499 665T606 539T644 348Q644 236 606 155T497 30T334 -13Q238 -13 169 31ZM389 60T423 123T458 352Q458 510 426 573T336
636Q281 636 247 573T212 345Q212 187 244 124T334 60Q389 60 423 123ZM276 947T329 893T437 804Q434 781 420 770T384 758Q350 758 295 785T199 852T158 925Q158 942 169 961T200 992T245 1005Q276 947 329 893Z" />
<glyph unicode="&#xd3;" glyph-name="Oacute" horiz-adv-x="669" d="M238 -13T169 31T62 158T25 348Q25 461 63 542T170 667T333 710Q429 710 499 665T606 539T644 348Q644 236 606 155T497 30T334 -13Q238 -13 169 31ZM389 60T423 123T458 352Q458 510 426 573T336
636Q281 636 247 573T212 345Q212 187 244 124T334 60Q389 60 423 123ZM443 1005T463 993T494 961T505 925Q505 891 464 852T369 786T279 758Q258 758 244 769T226 804Q280 839 333 893T418 1005Q443 1005 463 993Z" />
<glyph unicode="&#xd4;" glyph-name="Ocircumflex" horiz-adv-x="669" d="M238 -13T169 31T62 158T25 348Q25 461 63 542T170 667T333 710Q429 710 499 665T606 539T644 348Q644 236 606 155T497 30T334 -13Q238 -13 169 31ZM389 60T423 123T458 352Q458 510 426
573T336 636Q281 636 247 573T212 345Q212 187 244 124T334 60Q389 60 423 123ZM326 852L194 753Q175 760 160 774T140 804L288 968H364L513 804Q507 788 492 774T458 753L326 852Z" />
<glyph unicode="&#xd5;" glyph-name="Otilde" horiz-adv-x="669" d="M238 -13T169 31T62 158T25 348Q25 461 63 542T170 667T333 710Q429 710 499 665T606 539T644 348Q644 236 606 155T497 30T334 -13Q238 -13 169 31ZM389 60T423 123T458 352Q458 510 426 573T336
636Q281 636 247 573T212 345Q212 187 244 124T334 60Q389 60 423 123ZM469 905T474 905Q484 905 495 896T513 873T517 847Q508 811 474 785T390 758Q363 758 346 767T308 795Q292 809 282 815T257 822Q239 822 223 814T186 783Q183 780 178 780Q168 780 157 789T139
812T135 838Q144 872 181 900T263 928Q296 928 316 917T356 887Q369 875 377 870T396 864Q415 864 430 871T466 902Q469 905 474 905Z" />
<glyph unicode="&#xd6;" glyph-name="Odieresis" horiz-adv-x="669" d="M238 -13T169 31T62 158T25 348Q25 461 63 542T170 667T333 710Q429 710 499 665T606 539T644 348Q644 236 606 155T497 30T334 -13Q238 -13 169 31ZM389 60T423 123T458 352Q458 510 426
573T336 636Q281 636 247 573T212 345Q212 187 244 124T334 60Q389 60 423 123ZM284 809T263 782T204 754Q166 754 145 781T123 849Q123 888 144 915T204 942Q241 942 262 915T284 849Q284 809 263 782ZM529 809T508 782T448 754Q411 754 390 781T368 849Q368 888
389 915T448 942Q486 942 507 915T529 849Q529 809 508 782Z" />
<glyph unicode="&#xd7;" glyph-name="multiply" horiz-adv-x="579" d="M374 327L527 173Q518 151 491 125T444 91L290 244L135 88Q113 98 86 125T50 173L205 329L50 483Q60 506 87 533T135 568L289 413L444 568Q466 559 492 532T529 483L374 327Z" />
<glyph unicode="&#xd8;" glyph-name="Oslash" horiz-adv-x="669" d="M605 557T624 492T644 348Q644 236 606 155T497 30T334 -13Q219 -13 143 51L84 -26Q68 -24 52 -11Q43 -3 38 10L101 93Q25 191 25 348Q25 461 63 542T170 667T333 710Q445 710 525 647L585 726Q602
722 612 714Q625 704 633 689L567 604Q605 557 624 492ZM281 636T247 573T212 345Q212 279 218 231L437 545Q421 594 396 615T336 636Q281 636 247 573ZM389 60T423 123T458 352Q458 421 452 470L232 155Q261 60 334 60Q389 60 423 123Z" />
<glyph unicode="&#xd9;" glyph-name="Ugrave" horiz-adv-x="671" d="M600 273Q600 134 535 61T340 -13Q210 -13 136 58T62 263V585Q62 612 48 623T0 635Q0 673 23 698H273Q296 673 296 635Q262 635 248 624T234 585V242Q234 170 264 127T358 83Q421 83 449 122T478
226V585Q478 612 462 623T407 635Q407 675 429 698H649Q671 673 671 635Q633 635 617 624T600 585V273ZM282 947T335 893T443 804Q440 781 426 770T390 758Q356 758 301 785T205 852T164 925Q164 942 175 961T206 992T251 1005Q282 947 335 893Z" />
<glyph unicode="&#xda;" glyph-name="Uacute" horiz-adv-x="671" d="M600 273Q600 134 535 61T340 -13Q210 -13 136 58T62 263V585Q62 612 48 623T0 635Q0 673 23 698H273Q296 673 296 635Q262 635 248 624T234 585V242Q234 170 264 127T358 83Q421 83 449 122T478
226V585Q478 612 462 623T407 635Q407 675 429 698H649Q671 673 671 635Q633 635 617 624T600 585V273ZM449 1005T469 993T500 961T511 925Q511 891 470 852T375 786T285 758Q264 758 250 769T232 804Q286 839 339 893T424 1005Q449 1005 469 993Z" />
<glyph unicode="&#xdb;" glyph-name="Ucircumflex" horiz-adv-x="671" d="M600 273Q600 134 535 61T340 -13Q210 -13 136 58T62 263V585Q62 612 48 623T0 635Q0 673 23 698H273Q296 673 296 635Q262 635 248 624T234 585V242Q234 170 264 127T358 83Q421 83 449
122T478 226V585Q478 612 462 623T407 635Q407 675 429 698H649Q671 673 671 635Q633 635 617 624T600 585V273ZM332 852L200 753Q181 760 166 774T146 804L294 968H370L519 804Q513 788 498 774T464 753L332 852Z" />
<glyph unicode="&#xdc;" glyph-name="Udieresis" horiz-adv-x="671" d="M600 273Q600 134 535 61T340 -13Q210 -13 136 58T62 263V585Q62 612 48 623T0 635Q0 673 23 698H273Q296 673 296 635Q262 635 248 624T234 585V242Q234 170 264 127T358 83Q421 83 449
122T478 226V585Q478 612 462 623T407 635Q407 675 429 698H649Q671 673 671 635Q633 635 617 624T600 585V273ZM290 809T269 782T210 754Q172 754 151 781T129 849Q129 888 150 915T210 942Q247 942 268 915T290 849Q290 809 269 782ZM535 809T514 782T454 754Q417
754 396 781T374 849Q374 888 395 915T454 942Q492 942 513 915T535 849Q535 809 514 782Z" />
<glyph unicode="&#xdd;" glyph-name="Yacute" horiz-adv-x="661" d="M671 672T671 635Q646 635 634 631T614 617T594 585L420 269V114Q420 88 448 76T516 64Q516 46 510 29T494 0H193Q183 12 177 29T171 64Q209 64 236 76T263 114V246L64 591Q53 610 32 622T-10
635Q-10 672 14 698H284Q307 673 307 635Q247 635 247 596Q247 578 263 546L359 365L469 572Q474 582 474 591Q474 609 457 622T415 635Q415 673 438 698H647Q671 672 671 635ZM477 1005T497 993T528 961T539 925Q539 891 498 852T403 786T313 758Q292 758 278
769T260 804Q314 839 367 893T452 1005Q477 1005 497 993Z" />
<glyph unicode="&#xde;" glyph-name="Thorn" horiz-adv-x="609" d="M452 572T525 514T599 356Q599 289 566 240T473 164T338 138Q317 138 290 140T245 147V114Q245 86 258 75T305 64Q305 46 299 29T283 0H48Q38 12 32 29T26 64Q59 64 72 75T86 114V584Q86 612
73 623T26 635Q26 652 32 669T48 698H283Q293 686 299 669T305 635Q272 635 259 624T245 584V569Q283 572 314 572Q452 572 525 514ZM355 218T390 254T425 356Q425 422 388 455T282 488Q267 488 245 486V223Q265 218 295 218Q355 218 390 254Z" />
<glyph unicode="&#xdf;" glyph-name="germandbls" horiz-adv-x="657" d="M486 431T502 405T551 344Q579 315 596 292T626 234T639 151Q639 64 584 25T447 -15Q372 -15 330 19T288 103Q288 136 307 158T358 181Q382 181 398 164T414 119Q414 92 397 73Q414 54 444
54Q494 54 494 103Q494 143 476 172T421 237Q376 282 352 322T328 426Q328 464 340 489T377 549Q407 590 407 645Q407 674 388 692T338 711Q303 711 273 682T243 592V-5H50Q26 18 26 53Q55 53 68 65T81 108V434H20V496Q59 507 93 532Q101 611 137 667T230 753T355
782Q445 782 495 746T545 636Q545 587 511 535Q498 516 492 502T486 469Q486 431 502 405Z" />
<glyph unicode="&#xe0;" glyph-name="agrave" horiz-adv-x="537" d="M22 208T66 247T196 286Q226 286 257 280T309 264V397Q309 437 289 454T235 472Q202 472 181 456Q200 450 209 436T219 403Q219 371 196 351T138 331Q100 331 77 353T54 410Q54 445 78 476T151
526T274 545Q373 545 424 505T475 386V121Q475 73 521 63V31Q508 13 478 3T417 -7Q349 -7 321 40Q298 20 265 7T190 -7Q115 -7 69 34T22 141Q22 208 66 247ZM309 187Q298 194 283 199T253 204Q225 204 207 187T189 136Q189 109 207 92T255 74Q270 74 284 78T309
90V187ZM219 806T272 752T380 663Q377 640 363 629T327 617Q293 617 238 644T142 711T101 784Q101 801 112 820T143 851T188 864Q219 806 272 752Z" />
<glyph unicode="&#xe1;" glyph-name="aacute" horiz-adv-x="537" d="M22 208T66 247T196 286Q226 286 257 280T309 264V397Q309 437 289 454T235 472Q202 472 181 456Q200 450 209 436T219 403Q219 371 196 351T138 331Q100 331 77 353T54 410Q54 445 78 476T151
526T274 545Q373 545 424 505T475 386V121Q475 73 521 63V31Q508 13 478 3T417 -7Q349 -7 321 40Q298 20 265 7T190 -7Q115 -7 69 34T22 141Q22 208 66 247ZM309 187Q298 194 283 199T253 204Q225 204 207 187T189 136Q189 109 207 92T255 74Q270 74 284 78T309
90V187ZM386 864T406 852T437 820T448 784Q448 750 407 711T312 645T222 617Q201 617 187 628T169 663Q223 698 276 752T361 864Q386 864 406 852Z" />
<glyph unicode="&#xe2;" glyph-name="acircumflex" horiz-adv-x="537" d="M22 208T66 247T196 286Q226 286 257 280T309 264V397Q309 437 289 454T235 472Q202 472 181 456Q200 450 209 436T219 403Q219 371 196 351T138 331Q100 331 77 353T54 410Q54 445 78
476T151 526T274 545Q373 545 424 505T475 386V121Q475 73 521 63V31Q508 13 478 3T417 -7Q349 -7 321 40Q298 20 265 7T190 -7Q115 -7 69 34T22 141Q22 208 66 247ZM309 187Q298 194 283 199T253 204Q225 204 207 187T189 136Q189 109 207 92T255 74Q270 74 284
78T309 90V187ZM269 706L137 607Q118 614 103 628T83 658L231 822H307L456 658Q450 642 435 628T401 607L269 706Z" />
<glyph unicode="&#xe3;" glyph-name="atilde" horiz-adv-x="537" d="M22 208T66 247T196 286Q226 286 257 280T309 264V397Q309 437 289 454T235 472Q202 472 181 456Q200 450 209 436T219 403Q219 371 196 351T138 331Q100 331 77 353T54 410Q54 445 78 476T151
526T274 545Q373 545 424 505T475 386V121Q475 73 521 63V31Q508 13 478 3T417 -7Q349 -7 321 40Q298 20 265 7T190 -7Q115 -7 69 34T22 141Q22 208 66 247ZM309 187Q298 194 283 199T253 204Q225 204 207 187T189 136Q189 109 207 92T255 74Q270 74 284 78T309
90V187ZM418 778T423 778Q437 778 452 762T467 727Q467 722 466 720Q446 680 417 654T340 627Q313 627 297 635T258 661Q241 675 228 681T201 688Q165 688 125 643Q122 640 117 640Q104 640 89 656T73 690Q73 695 74 698Q86 733 121 762T200 791Q233 791 252 782T294
753Q321 730 339 730Q375 730 415 775Q418 778 423 778Z" />
<glyph unicode="&#xe4;" glyph-name="adieresis" horiz-adv-x="537" d="M22 208T66 247T196 286Q226 286 257 280T309 264V397Q309 437 289 454T235 472Q202 472 181 456Q200 450 209 436T219 403Q219 371 196 351T138 331Q100 331 77 353T54 410Q54 445 78 476T151
526T274 545Q373 545 424 505T475 386V121Q475 73 521 63V31Q508 13 478 3T417 -7Q349 -7 321 40Q298 20 265 7T190 -7Q115 -7 69 34T22 141Q22 208 66 247ZM309 187Q298 194 283 199T253 204Q225 204 207 187T189 136Q189 109 207 92T255 74Q270 74 284 78T309
90V187ZM227 668T206 641T147 613Q108 613 87 640T66 708Q66 748 87 774T147 801Q185 801 206 775T227 709Q227 668 206 641ZM472 668T451 641T391 613Q353 613 332 640T311 708Q311 748 332 774T391 801Q430 801 451 775T472 709Q472 668 451 641Z" />
<glyph unicode="&#xe5;" glyph-name="aring" horiz-adv-x="537" d="M22 208T66 247T196 286Q226 286 257 280T309 264V397Q309 437 289 454T235 472Q202 472 181 456Q200 450 209 436T219 403Q219 371 196 351T138 331Q100 331 77 353T54 410Q54 445 78 476T151
526T274 545Q373 545 424 505T475 386V121Q475 73 521 63V31Q508 13 478 3T417 -7Q349 -7 321 40Q298 20 265 7T190 -7Q115 -7 69 34T22 141Q22 208 66 247ZM309 187Q298 194 283 199T253 204Q225 204 207 187T189 136Q189 109 207 92T255 74Q270 74 284 78T309
90V187ZM410 688T372 650T269 612Q205 612 167 650T128 751Q128 813 166 851T269 889Q333 889 371 851T410 751Q410 688 372 650ZM324 775T309 790T269 806Q244 806 229 791T214 750Q214 725 229 710T269 695Q294 695 309 710T324 750Q324 775 309 790Z" />
<glyph unicode="&#xe6;" glyph-name="ae" horiz-adv-x="772" d="M721 129T726 113T732 86Q732 67 709 43T643 2T546 -15Q437 -15 370 58Q304 -15 191 -15Q114 -15 68 27T22 136Q22 202 68 243T195 285Q225 285 256 279T306 263V395Q306 472 237 472Q205 472 184
456Q203 450 212 435T221 400Q221 368 198 348T140 327Q103 327 80 350T57 408Q57 442 81 473T152 523T264 543Q363 543 415 497Q473 543 555 543Q644 543 695 490T746 343Q746 299 732 274T681 248H471Q475 167 507 132T596 96Q657 96 713 136Q721 129 726 113ZM515
472T494 439T471 324H574Q590 324 595 335T600 369Q600 472 546 472Q515 472 494 439ZM306 186Q296 193 281 198T252 203Q224 203 206 185T187 135Q187 103 205 85T251 66Q286 66 306 88V186Z" />
<glyph unicode="&#xe7;" glyph-name="ccedilla" horiz-adv-x="462" d="M349 96T376 104T422 127Q430 118 435 103T441 77Q441 56 420 35T361 0T281 -15L248 -92Q272 -84 303 -84Q351 -84 378 -112T406 -177Q406 -207 387 -235T331 -282T243 -300Q196 -300 159
-288T104 -258Q104 -244 111 -230T128 -206Q176 -240 226 -240Q252 -240 266 -224T281 -191Q281 -175 269 -160T233 -145Q217 -145 195 -151L158 -130L202 -6Q120 15 73 84T26 260Q26 347 59 411T152 509T286 543Q360 543 401 508T443 417Q443 370 419 344T357
317Q326 317 305 340T284 396Q284 418 292 433T314 460Q298 469 285 469Q251 469 225 429T199 295Q199 189 230 143T321 96Q349 96 376 104Z" />
<glyph unicode="&#xe8;" glyph-name="egrave" horiz-adv-x="502" d="M383 102T437 142Q445 134 451 118T457 90Q457 72 433 49T367 8T271 -9Q197 -9 142 23T56 116T26 260Q26 345 58 409T148 507T277 542Q368 542 422 489T476 342Q476 298 462 273T412 247H196Q202
102 320 102Q383 102 437 142ZM240 473T219 439T196 323H297Q313 323 318 334T323 368Q323 427 309 450T271 473Q240 473 219 439ZM223 806T276 752T384 663Q381 640 367 629T331 617Q297 617 242 644T146 711T105 784Q105 801 116 820T147 851T192 864Q223 806
276 752Z" />
<glyph unicode="&#xe9;" glyph-name="eacute" horiz-adv-x="502" d="M383 102T437 142Q445 134 451 118T457 90Q457 72 433 49T367 8T271 -9Q197 -9 142 23T56 116T26 260Q26 345 58 409T148 507T277 542Q368 542 422 489T476 342Q476 298 462 273T412 247H196Q202
102 320 102Q383 102 437 142ZM240 473T219 439T196 323H297Q313 323 318 334T323 368Q323 427 309 450T271 473Q240 473 219 439ZM390 864T410 852T441 820T452 784Q452 750 411 711T316 645T226 617Q205 617 191 628T173 663Q227 698 280 752T365 864Q390 864
410 852Z" />
<glyph unicode="&#xea;" glyph-name="ecircumflex" horiz-adv-x="502" d="M383 102T437 142Q445 134 451 118T457 90Q457 72 433 49T367 8T271 -9Q197 -9 142 23T56 116T26 260Q26 345 58 409T148 507T277 542Q368 542 422 489T476 342Q476 298 462 273T412 247H196Q202
102 320 102Q383 102 437 142ZM240 473T219 439T196 323H297Q313 323 318 334T323 368Q323 427 309 450T271 473Q240 473 219 439ZM273 706L141 607Q122 614 107 628T87 658L235 822H311L460 658Q454 642 439 628T405 607L273 706Z" />
<glyph unicode="&#xeb;" glyph-name="edieresis" horiz-adv-x="502" d="M383 102T437 142Q445 134 451 118T457 90Q457 72 433 49T367 8T271 -9Q197 -9 142 23T56 116T26 260Q26 345 58 409T148 507T277 542Q368 542 422 489T476 342Q476 298 462 273T412 247H196Q202
102 320 102Q383 102 437 142ZM240 473T219 439T196 323H297Q313 323 318 334T323 368Q323 427 309 450T271 473Q240 473 219 439ZM231 668T210 641T151 613Q112 613 91 640T70 708Q70 748 91 774T151 801Q189 801 210 775T231 709Q231 668 210 641ZM476 668T455
641T395 613Q357 613 336 640T315 708Q315 748 336 774T395 801Q434 801 455 775T476 709Q476 668 455 641Z" />
<glyph unicode="&#xec;" glyph-name="igrave" horiz-adv-x="312" d="M237 108Q237 79 251 67T296 54Q296 23 273 0H47Q24 23 24 54Q54 54 67 66T81 109V399Q81 427 68 439T15 451V495Q39 510 96 526T194 543Q217 543 227 533T237 497V108ZM95 806T148 752T256
663Q253 640 239 629T203 617Q169 617 114 644T18 711T-23 784Q-23 801 -12 820T19 851T64 864Q95 806 148 752Z" />
<glyph unicode="&#xed;" glyph-name="iacute" horiz-adv-x="312" d="M237 108Q237 79 251 67T296 54Q296 23 273 0H47Q24 23 24 54Q54 54 67 66T81 109V399Q81 427 68 439T15 451V495Q39 510 96 526T194 543Q217 543 227 533T237 497V108ZM262 864T282 852T313
820T324 784Q324 750 283 711T188 645T98 617Q77 617 63 628T45 663Q99 698 152 752T237 864Q262 864 282 852Z" />
<glyph unicode="&#xee;" glyph-name="icircumflex" horiz-adv-x="312" d="M237 108Q237 79 251 67T296 54Q296 23 273 0H47Q24 23 24 54Q54 54 67 66T81 109V399Q81 427 68 439T15 451V495Q39 510 96 526T194 543Q217 543 227 533T237 497V108ZM145 706L13 607Q-6
614 -21 628T-41 658L107 822H183L332 658Q326 642 311 628T277 607L145 706Z" />
<glyph unicode="&#xef;" glyph-name="idieresis" horiz-adv-x="312" d="M237 108Q237 79 251 67T296 54Q296 23 273 0H47Q24 23 24 54Q54 54 67 66T81 109V399Q81 427 68 439T15 451V495Q39 510 96 526T194 543Q217 543 227 533T237 497V108ZM103 668T82 641T23
613Q-16 613 -37 640T-58 708Q-58 748 -37 774T23 801Q61 801 82 775T103 709Q103 668 82 641ZM348 668T327 641T267 613Q229 613 208 640T187 708Q187 748 208 774T267 801Q306 801 327 775T348 709Q348 668 327 641Z" />
<glyph unicode="&#xf0;" glyph-name="eth" horiz-adv-x="555" d="M445 639T487 533T529 296Q529 146 462 69T279 -9Q205 -9 148 20T58 105T26 240Q26 326 57 387T141 479T251 510Q311 510 351 478Q330 575 278 643L206 595Q189 598 175 616T160 646L232 693Q188
732 132 758Q141 783 154 793T193 803Q257 803 325 755L411 811Q429 801 439 791T453 760L377 709Q445 639 487 533ZM315 63T331 81T356 159T364 339Q364 394 340 416T281 438Q255 438 239 423T215 366T206 248Q206 140 226 102T284 63Q315 63 331 81Z" />
<glyph unicode="&#xf1;" glyph-name="ntilde" horiz-adv-x="611" d="M592 27Q577 12 539 3T465 -6Q422 -6 402 10T381 61V373Q381 412 364 429T319 446Q278 446 250 413V108Q250 79 262 66T305 53Q305 23 282 0H55Q31 24 31 53Q61 53 74 66T87 108V400Q87 427
72 438T20 450V495Q52 513 110 528T199 543Q222 543 234 529T249 474Q275 506 314 524T402 543Q474 543 508 507T543 387V114Q543 65 591 56L592 27ZM468 778T473 778Q487 778 502 762T517 727Q517 722 516 720Q496 680 467 654T390 627Q363 627 347 635T308 661Q291
675 278 681T251 688Q215 688 175 643Q172 640 167 640Q154 640 139 656T123 690Q123 695 124 698Q136 733 171 762T250 791Q283 791 302 782T344 753Q371 730 389 730Q425 730 465 775Q468 778 473 778Z" />
<glyph unicode="&#xf2;" glyph-name="ograve" horiz-adv-x="546" d="M158 -13T92 56T26 255Q26 347 57 412T146 510T278 543Q350 543 404 512T489 419T520 271Q520 180 489 116T400 20T268 -13Q158 -13 92 56ZM311 59T328 99T345 247Q345 338 336 387T311 454T270
472Q235 472 218 432T200 282Q200 192 209 144T234 77T276 59Q311 59 328 99ZM220 806T273 752T381 663Q378 640 364 629T328 617Q294 617 239 644T143 711T102 784Q102 801 113 820T144 851T189 864Q220 806 273 752Z" />
<glyph unicode="&#xf3;" glyph-name="oacute" horiz-adv-x="546" d="M158 -13T92 56T26 255Q26 347 57 412T146 510T278 543Q350 543 404 512T489 419T520 271Q520 180 489 116T400 20T268 -13Q158 -13 92 56ZM311 59T328 99T345 247Q345 338 336 387T311 454T270
472Q235 472 218 432T200 282Q200 192 209 144T234 77T276 59Q311 59 328 99ZM387 864T407 852T438 820T449 784Q449 750 408 711T313 645T223 617Q202 617 188 628T170 663Q224 698 277 752T362 864Q387 864 407 852Z" />
<glyph unicode="&#xf4;" glyph-name="ocircumflex" horiz-adv-x="546" d="M158 -13T92 56T26 255Q26 347 57 412T146 510T278 543Q350 543 404 512T489 419T520 271Q520 180 489 116T400 20T268 -13Q158 -13 92 56ZM311 59T328 99T345 247Q345 338 336 387T311
454T270 472Q235 472 218 432T200 282Q200 192 209 144T234 77T276 59Q311 59 328 99ZM270 706L138 607Q119 614 104 628T84 658L232 822H308L457 658Q451 642 436 628T402 607L270 706Z" />
<glyph unicode="&#xf5;" glyph-name="otilde" horiz-adv-x="546" d="M158 -13T92 56T26 255Q26 347 57 412T146 510T278 543Q350 543 404 512T489 419T520 271Q520 180 489 116T400 20T268 -13Q158 -13 92 56ZM311 59T328 99T345 247Q345 338 336 387T311 454T270
472Q235 472 218 432T200 282Q200 192 209 144T234 77T276 59Q311 59 328 99ZM419 778T424 778Q438 778 453 762T468 727Q468 722 467 720Q447 680 418 654T341 627Q314 627 298 635T259 661Q242 675 229 681T202 688Q166 688 126 643Q123 640 118 640Q105 640
90 656T74 690Q74 695 75 698Q87 733 122 762T201 791Q234 791 253 782T295 753Q322 730 340 730Q376 730 416 775Q419 778 424 778Z" />
<glyph unicode="&#xf6;" glyph-name="odieresis" horiz-adv-x="546" d="M158 -13T92 56T26 255Q26 347 57 412T146 510T278 543Q350 543 404 512T489 419T520 271Q520 180 489 116T400 20T268 -13Q158 -13 92 56ZM311 59T328 99T345 247Q345 338 336 387T311 454T270
472Q235 472 218 432T200 282Q200 192 209 144T234 77T276 59Q311 59 328 99ZM228 668T207 641T148 613Q109 613 88 640T67 708Q67 748 88 774T148 801Q186 801 207 775T228 709Q228 668 207 641ZM473 668T452 641T392 613Q354 613 333 640T312 708Q312 748 333
774T392 801Q431 801 452 775T473 709Q473 668 452 641Z" />
<glyph unicode="&#xf7;" glyph-name="divide" horiz-adv-x="629" d="M414 522T389 497T320 471Q278 471 253 496T228 563Q228 604 253 629T320 655Q363 655 388 630T414 563Q414 522 389 497ZM571 381Q579 362 579 322Q579 283 571 267H58Q50 286 50 322Q50 364
60 381H571ZM414 42T389 16T320 -10Q278 -10 253 15T228 83Q228 124 253 149T320 174Q363 174 388 149T414 83Q414 42 389 16Z" />
<glyph unicode="&#xf8;" glyph-name="oslash" horiz-adv-x="546" d="M520 400T520 271Q520 180 489 116T400 20T268 -13Q189 -13 133 23L93 -29Q77 -27 61 -14Q52 -6 47 7L88 61Q26 133 26 255Q26 347 57 412T146 510T278 543Q352 543 408 510L445 561Q462 557
472 549Q485 539 493 524L454 472Q520 400 520 271ZM235 472T218 432T200 282Q200 251 202 207L332 408Q323 444 308 458T270 472Q235 472 218 432ZM311 59T328 99T345 247Q345 296 342 332L212 130Q221 90 236 75T276 59Q311 59 328 99Z" />
<glyph unicode="&#xf9;" glyph-name="ugrave" horiz-adv-x="572" d="M512 93T524 77T560 59V31Q544 13 511 3T443 -7Q409 -7 385 11T353 61Q305 -7 216 -7Q146 -7 107 36T68 152V427Q68 444 56 451T19 458V502Q34 514 76 526T167 538Q195 538 208 535T226 520T231
485V149Q231 118 241 103T276 87Q296 87 315 99T349 130V427Q349 458 293 458V502Q309 515 351 526T445 538Q486 538 499 529T512 485V117Q512 93 524 77ZM242 806T295 752T403 663Q400 640 386 629T350 617Q316 617 261 644T165 711T124 784Q124 801 135 820T166
851T211 864Q242 806 295 752Z" />
<glyph unicode="&#xfa;" glyph-name="uacute" horiz-adv-x="572" d="M512 93T524 77T560 59V31Q544 13 511 3T443 -7Q409 -7 385 11T353 61Q305 -7 216 -7Q146 -7 107 36T68 152V427Q68 444 56 451T19 458V502Q34 514 76 526T167 538Q195 538 208 535T226 520T231
485V149Q231 118 241 103T276 87Q296 87 315 99T349 130V427Q349 458 293 458V502Q309 515 351 526T445 538Q486 538 499 529T512 485V117Q512 93 524 77ZM409 864T429 852T460 820T471 784Q471 750 430 711T335 645T245 617Q224 617 210 628T192 663Q246 698 299
752T384 864Q409 864 429 852Z" />
<glyph unicode="&#xfb;" glyph-name="ucircumflex" horiz-adv-x="572" d="M512 93T524 77T560 59V31Q544 13 511 3T443 -7Q409 -7 385 11T353 61Q305 -7 216 -7Q146 -7 107 36T68 152V427Q68 444 56 451T19 458V502Q34 514 76 526T167 538Q195 538 208 535T226
520T231 485V149Q231 118 241 103T276 87Q296 87 315 99T349 130V427Q349 458 293 458V502Q309 515 351 526T445 538Q486 538 499 529T512 485V117Q512 93 524 77ZM292 706L160 607Q141 614 126 628T106 658L254 822H330L479 658Q473 642 458 628T424 607L292 706Z"
/>
<glyph unicode="&#xfc;" glyph-name="udieresis" horiz-adv-x="572" d="M512 93T524 77T560 59V31Q544 13 511 3T443 -7Q409 -7 385 11T353 61Q305 -7 216 -7Q146 -7 107 36T68 152V427Q68 444 56 451T19 458V502Q34 514 76 526T167 538Q195 538 208 535T226 520T231
485V149Q231 118 241 103T276 87Q296 87 315 99T349 130V427Q349 458 293 458V502Q309 515 351 526T445 538Q486 538 499 529T512 485V117Q512 93 524 77ZM250 668T229 641T170 613Q131 613 110 640T89 708Q89 748 110 774T170 801Q208 801 229 775T250 709Q250
668 229 641ZM495 668T474 641T414 613Q376 613 355 640T334 708Q334 748 355 774T414 801Q453 801 474 775T495 709Q495 668 474 641Z" />
<glyph unicode="&#xfd;" glyph-name="yacute" horiz-adv-x="530" d="M560 510T560 470Q536 470 522 458T499 418L385 63Q340 -83 289 -147T161 -211Q101 -211 69 -186T37 -123Q37 -99 48 -80T78 -53Q105 -85 158 -85Q190 -85 221 -54T272 37H190L36 411Q34 417
26 436T6 462T-25 470Q-25 509 -4 531H232Q256 505 256 470Q210 470 210 424Q210 406 215 391L308 120L374 404Q377 418 377 428Q377 470 328 470Q328 511 347 531H540Q560 510 560 470ZM408 864T428 852T459 820T470 784Q470 750 429 711T334 645T244 617Q223
617 209 628T191 663Q245 698 298 752T383 864Q408 864 428 852Z" />
<glyph unicode="&#xfe;" glyph-name="thorn" horiz-adv-x="569" d="M237 -8T220 -4V-82Q220 -109 242 -123T290 -137Q290 -167 267 -190H46Q22 -166 22 -137Q50 -137 58 -125T67 -82V646Q67 695 6 695V727Q39 750 91 767T176 784Q200 784 210 774T220 738V596L217
501Q255 540 330 540Q387 540 435 512T512 425T541 283Q541 190 505 125T406 26T268 -8Q237 -8 220 -4ZM220 84Q239 65 271 65Q369 65 369 249Q369 353 340 404T261 455Q236 455 220 444V84Z" />
<glyph unicode="&#xff;" glyph-name="ydieresis" horiz-adv-x="530" d="M560 510T560 470Q536 470 522 458T499 418L385 63Q340 -83 289 -147T161 -211Q101 -211 69 -186T37 -123Q37 -99 48 -80T78 -53Q105 -85 158 -85Q190 -85 221 -54T272 37H190L36 411Q34
417 26 436T6 462T-25 470Q-25 509 -4 531H232Q256 505 256 470Q210 470 210 424Q210 406 215 391L308 120L374 404Q377 418 377 428Q377 470 328 470Q328 511 347 531H540Q560 510 560 470ZM249 668T228 641T169 613Q130 613 109 640T88 708Q88 748 109 774T169
801Q207 801 228 775T249 709Q249 668 228 641ZM494 668T473 641T413 613Q375 613 354 640T333 708Q333 748 354 774T413 801Q452 801 473 775T494 709Q494 668 473 641Z" />
<glyph unicode="&#x2013;" glyph-name="endash" horiz-adv-x="727" d="M646 314Q649 306 650 289T652 258Q652 228 646 214H49Q43 231 43 258Q43 274 44 291T49 314H646Z" />
<glyph unicode="&#x2014;" glyph-name="emdash" horiz-adv-x="1020" d="M935 314Q942 299 942 258Q942 227 935 214H85Q78 227 78 258Q78 301 85 314H935Z" />
<glyph unicode="&#x2018;" glyph-name="quoteleft" horiz-adv-x="292" d="M213 806T221 793T230 765Q190 740 166 701T142 622V609Q144 610 156 610Q194 610 216 584T238 521Q238 478 214 454T151 430Q106 430 78 465T50 569Q50 628 71 679T128 764T202 810Q213
806 221 793Z" />
<glyph unicode="&#x2019;" glyph-name="quoteright" horiz-adv-x="292" d="M79 429T70 442T61 471Q101 496 125 535T150 613Q150 621 149 626Q146 625 135 625Q97 625 76 651T54 714Q54 754 78 779T140 805Q186 805 214 771T242 668Q242 608 221 557T164 472T90
425Q79 429 70 442Z" />
<glyph unicode="&#x201a;" glyph-name="quotesinglbase" horiz-adv-x="292" d="M79 -190T70 -177T61 -148Q101 -123 125 -84T150 -6Q150 2 149 7Q146 6 135 6Q97 6 76 32T54 95Q54 135 78 160T140 186Q186 186 214 152T242 49Q242 -11 221 -62T164 -147T90 -194Q79
-190 70 -177Z" />
<glyph unicode="&#x201c;" glyph-name="quotedblleft" horiz-adv-x="562" d="M213 806T221 793T230 765Q190 740 166 701T142 622V609Q144 610 156 610Q194 610 216 584T238 521Q238 478 214 454T151 430Q106 430 78 465T50 569Q50 628 71 679T128 764T202 810Q213
806 221 793ZM483 806T491 793T500 765Q460 740 436 701T412 622V609Q414 610 426 610Q464 610 486 584T508 521Q508 478 484 454T421 430Q376 430 348 465T320 569Q320 628 341 679T398 764T472 810Q483 806 491 793Z" />
<glyph unicode="&#x201d;" glyph-name="quotedblright" horiz-adv-x="562" d="M79 429T70 442T61 471Q101 496 125 535T150 613Q150 621 149 626Q146 625 135 625Q97 625 76 651T54 714Q54 754 78 779T140 805Q186 805 214 771T242 668Q242 608 221 557T164 472T90
425Q79 429 70 442ZM349 429T340 442T331 471Q371 496 395 535T420 613Q420 621 419 626Q416 625 405 625Q367 625 346 651T324 714Q324 754 348 779T410 805Q456 805 484 771T512 668Q512 608 491 557T434 472T360 425Q349 429 340 442Z" />
<glyph unicode="&#x201e;" glyph-name="quotedblbase" horiz-adv-x="540" d="M79 -246T70 -233T61 -204Q101 -179 125 -140T150 -62Q150 -54 149 -49Q146 -50 135 -50Q97 -50 76 -24T54 39Q54 79 78 104T140 130Q186 130 214 96T242 -7Q242 -67 221 -118T164 -203T90
-250Q79 -246 70 -233ZM327 -246T318 -233T309 -204Q349 -179 373 -140T398 -62Q398 -54 397 -49Q394 -50 383 -50Q345 -50 324 -24T302 39Q302 79 326 104T388 130Q434 130 462 96T490 -7Q490 -67 469 -118T412 -203T338 -250Q327 -246 318 -233Z" />
<glyph unicode="&#x2022;" glyph-name="bullet" horiz-adv-x="388" d="M351 263T308 221T194 178Q122 178 80 220T37 333Q37 403 79 445T194 487Q265 487 308 445T351 333Q351 263 308 221Z" />
<glyph unicode="&#x2039;" glyph-name="guilsinglleft" horiz-adv-x="301" d="M175 326L270 150Q256 122 222 107L27 296V357L222 544Q256 530 270 502L175 326Z" />
<glyph unicode="&#x203a;" glyph-name="guilsinglright" horiz-adv-x="301" d="M274 356V295L79 106Q45 121 31 149L126 325L31 501Q45 529 79 543L274 356Z" />
</font>
</defs>
</svg>
